<?xml version="1.0" encoding="UTF-8"?>
<svg version="1.1" xmlns="http://www.w3.org/2000/svg" width="254" height="254">
<path d="M0 0 C83.82 0 167.64 0 254 0 C254 83.82 254 167.64 254 254 C170.18 254 86.36 254 0 254 C0 170.18 0 86.36 0 0 Z " fill="#F6F2E2" transform="translate(0,0)"/>
<path d="M0 0 C83.82 0 167.64 0 254 0 C254 20.46 254 40.92 254 62 C248.06 62 242.12 62 236 62 C236 60.02 236 58.04 236 56 C235.34 56 234.68 56 234 56 C234 52.04 234 48.08 234 44 C232.68 44 231.36 44 230 44 C230 43.34 230 42.68 230 42 C229.34 42 228.68 42 228 42 C228 39.36 228 36.72 228 34 C223.38 34 218.76 34 214 34 C214 33.34 214 32.68 214 32 C210.7 32 207.4 32 204 32 C204 30.68 204 29.36 204 28 C203.34 28 202.68 28 202 28 C202 26.02 202 24.04 202 22 C201.34 22 200.68 22 200 22 C200 22.66 200 23.32 200 24 C198.02 24 196.04 24 194 24 C194 24.66 194 25.32 194 26 C191.36 26 188.72 26 186 26 C186 25.34 186 24.68 186 24 C185.34 24 184.68 24 184 24 C184 23.34 184 22.68 184 22 C177.4 22 170.8 22 164 22 C164 22.66 164 23.32 164 24 C162.02 24 160.04 24 158 24 C158 22.68 158 21.36 158 20 C157.34 20 156.68 20 156 20 C156 19.34 156 18.68 156 18 C155.34 18 154.68 18 154 18 C154 17.34 154 16.68 154 16 C153.34 16 152.68 16 152 16 C152 15.34 152 14.68 152 14 C149.36 14 146.72 14 144 14 C144 13.34 144 12.68 144 12 C140.04 12 136.08 12 132 12 C132 12.66 132 13.32 132 14 C131.34 14 130.68 14 130 14 C130 14.66 130 15.32 130 16 C126.04 16 122.08 16 118 16 C118 16.66 118 17.32 118 18 C117.34 18 116.68 18 116 18 C116 18.66 116 19.32 116 20 C115.34 20 114.68 20 114 20 C114 21.32 114 22.64 114 24 C113.34 24 112.68 24 112 24 C112 29.28 112 34.56 112 40 C112.66 40 113.32 40 114 40 C114 43.3 114 46.6 114 50 C112.68 50 111.36 50 110 50 C110 50.66 110 51.32 110 52 C108.02 52 106.04 52 104 52 C104 52.66 104 53.32 104 54 C103.34 54 102.68 54 102 54 C102 54.66 102 55.32 102 56 C101.34 56 100.68 56 100 56 C100 56.66 100 57.32 100 58 C99.34 58 98.68 58 98 58 C98 58.66 98 59.32 98 60 C97.34 60 96.68 60 96 60 C96 60.66 96 61.32 96 62 C95.34 62 94.68 62 94 62 C94 62.66 94 63.32 94 64 C92.02 64 90.04 64 88 64 C88 65.32 88 66.64 88 68 C86.68 68 85.36 68 84 68 C84 69.98 84 71.96 84 74 C82.68 74 81.36 74 80 74 C80 74.66 80 75.32 80 76 C78.68 76 77.36 76 76 76 C76 77.98 76 79.96 76 82 C75.34 82 74.68 82 74 82 C74 84.64 74 87.28 74 90 C73.34 90 72.68 90 72 90 C72 92.64 72 95.28 72 98 C70.02 98 68.04 98 66 98 C66 97.34 66 96.68 66 96 C65.34 96 64.68 96 64 96 C64 94.68 64 93.36 64 92 C63.34 92 62.68 92 62 92 C62 91.34 62 90.68 62 90 C61.34 90 60.68 90 60 90 C60 88.02 60 86.04 60 84 C59.34 84 58.68 84 58 84 C58 85.32 58 86.64 58 88 C57.34 88 56.68 88 56 88 C56 89.32 56 90.64 56 92 C55.34 92 54.68 92 54 92 C54 92.66 54 93.32 54 94 C53.34 94 52.68 94 52 94 C52 94.66 52 95.32 52 96 C50.68 96 49.36 96 48 96 C48 98.64 48 101.28 48 104 C48.66 104 49.32 104 50 104 C50 104.66 50 105.32 50 106 C50.66 106 51.32 106 52 106 C52 107.32 52 108.64 52 110 C52.66 110 53.32 110 54 110 C54 110.66 54 111.32 54 112 C54.66 112 55.32 112 56 112 C56 112.66 56 113.32 56 114 C59.3 114 62.6 114 66 114 C66 115.98 66 117.96 66 120 C63.36 120 60.72 120 58 120 C58 120.66 58 121.32 58 122 C57.34 122 56.68 122 56 122 C56 123.32 56 124.64 56 126 C55.34 126 54.68 126 54 126 C54 127.98 54 129.96 54 132 C53.34 132 52.68 132 52 132 C52 133.32 52 134.64 52 136 C51.34 136 50.68 136 50 136 C50 137.32 50 138.64 50 140 C49.34 140 48.68 140 48 140 C48 141.98 48 143.96 48 146 C47.34 146 46.68 146 46 146 C46 147.32 46 148.64 46 150 C45.34 150 44.68 150 44 150 C44 151.32 44 152.64 44 154 C43.34 154 42.68 154 42 154 C42 156.64 42 159.28 42 162 C41.34 162 40.68 162 40 162 C40 162.66 40 163.32 40 164 C42.64 164 45.28 164 48 164 C48 165.98 48 167.96 48 170 C46.02 170 44.04 170 42 170 C42 169.34 42 168.68 42 168 C36.72 168 31.44 168 26 168 C26 170.64 26 173.28 26 176 C25.34 176 24.68 176 24 176 C24 177.98 24 179.96 24 182 C24.66 182 25.32 182 26 182 C26 182.66 26 183.32 26 184 C26.66 184 27.32 184 28 184 C28 184.66 28 185.32 28 186 C29.98 186 31.96 186 34 186 C34 184.68 34 183.36 34 182 C37.96 182 41.92 182 46 182 C46 183.32 46 184.64 46 186 C45.34 186 44.68 186 44 186 C44 186.66 44 187.32 44 188 C42.68 188 41.36 188 40 188 C40 195.26 40 202.52 40 210 C40.66 210 41.32 210 42 210 C42 210.66 42 211.32 42 212 C42.66 212 43.32 212 44 212 C44 213.32 44 214.64 44 216 C44.66 216 45.32 216 46 216 C46 216.66 46 217.32 46 218 C46.66 218 47.32 218 48 218 C48 219.32 48 220.64 48 222 C48.66 222 49.32 222 50 222 C50 224.64 50 227.28 50 230 C50.66 230 51.32 230 52 230 C52 230.66 52 231.32 52 232 C52.66 232 53.32 232 54 232 C54 234.64 54 237.28 54 240 C54.66 240 55.32 240 56 240 C56 241.32 56 242.64 56 244 C56.66 244 57.32 244 58 244 C58 245.98 58 247.96 58 250 C59.98 250 61.96 250 64 250 C64 250.66 64 251.32 64 252 C65.32 252 66.64 252 68 252 C68 252.66 68 253.32 68 254 C45.56 254 23.12 254 0 254 C0 170.18 0 86.36 0 0 Z " fill="#8218BB" transform="translate(0,0)"/>
<path d="M0 0 C42.24 0 84.48 0 128 0 C128 0.66 128 1.32 128 2 C126.68 2 125.36 2 124 2 C124 3.32 124 4.64 124 6 C123.34 6 122.68 6 122 6 C122 6.66 122 7.32 122 8 C121.34 8 120.68 8 120 8 C120 8.66 120 9.32 120 10 C120.66 10 121.32 10 122 10 C122 10.66 122 11.32 122 12 C121.34 12 120.68 12 120 12 C120 12.66 120 13.32 120 14 C116.7 14 113.4 14 110 14 C110 14.66 110 15.32 110 16 C110.66 16 111.32 16 112 16 C112 17.98 112 19.96 112 22 C111.34 22 110.68 22 110 22 C110 22.66 110 23.32 110 24 C109.34 24 108.68 24 108 24 C108 23.34 108 22.68 108 22 C107.34 22 106.68 22 106 22 C106 21.34 106 20.68 106 20 C105.34 20 104.68 20 104 20 C104 21.32 104 22.64 104 24 C102.68 24 101.36 24 100 24 C100 27.3 100 30.6 100 34 C99.34 34 98.68 34 98 34 C98 32.68 98 31.36 98 30 C97.34 30 96.68 30 96 30 C96 30.66 96 31.32 96 32 C94.68 32 93.36 32 92 32 C92 32.66 92 33.32 92 34 C93.32 34 94.64 34 96 34 C96 34.66 96 35.32 96 36 C94.68 36 93.36 36 92 36 C92 37.32 92 38.64 92 40 C91.34 40 90.68 40 90 40 C90 38.68 90 37.36 90 36 C89.34 36 88.68 36 88 36 C88 38.64 88 41.28 88 44 C87.34 44 86.68 44 86 44 C86 44.66 86 45.32 86 46 C85.34 46 84.68 46 84 46 C84 46.66 84 47.32 84 48 C83.34 48 82.68 48 82 48 C82 48.66 82 49.32 82 50 C81.34 50 80.68 50 80 50 C80 49.34 80 48.68 80 48 C78.68 48 77.36 48 76 48 C76 48.66 76 49.32 76 50 C76.66 50 77.32 50 78 50 C78 51.32 78 52.64 78 54 C76.68 54 75.36 54 74 54 C74 54.66 74 55.32 74 56 C74.66 56 75.32 56 76 56 C76 56.66 76 57.32 76 58 C75.34 58 74.68 58 74 58 C74 58.66 74 59.32 74 60 C72.68 60 71.36 60 70 60 C70 60.66 70 61.32 70 62 C69.34 62 68.68 62 68 62 C68 62.66 68 63.32 68 64 C67.34 64 66.68 64 66 64 C66 63.34 66 62.68 66 62 C64.68 62 63.36 62 62 62 C62 62.66 62 63.32 62 64 C62.66 64 63.32 64 64 64 C64 65.32 64 66.64 64 68 C63.34 68 62.68 68 62 68 C62 67.34 62 66.68 62 66 C60.68 66 59.36 66 58 66 C58 64.68 58 63.36 58 62 C57.34 62 56.68 62 56 62 C56 61.34 56 60.68 56 60 C56.66 60 57.32 60 58 60 C58 59.34 58 58.68 58 58 C58.66 58 59.32 58 60 58 C60 50.74 60 43.48 60 36 C59.34 36 58.68 36 58 36 C58 35.34 58 34.68 58 34 C52.06 34 46.12 34 40 34 C40 34.66 40 35.32 40 36 C39.34 36 38.68 36 38 36 C38 41.28 38 46.56 38 52 C34.04 52 30.08 52 26 52 C26 53.32 26 54.64 26 56 C25.34 56 24.68 56 24 56 C24 56.66 24 57.32 24 58 C23.34 58 22.68 58 22 58 C22 58.66 22 59.32 22 60 C21.34 60 20.68 60 20 60 C20 67.26 20 74.52 20 82 C20.66 82 21.32 82 22 82 C22 83.98 22 85.96 22 88 C22.66 88 23.32 88 24 88 C24 88.66 24 89.32 24 90 C24.66 90 25.32 90 26 90 C26 90.66 26 91.32 26 92 C26.66 92 27.32 92 28 92 C28 92.66 28 93.32 28 94 C29.32 94 30.64 94 32 94 C32 95.98 32 97.96 32 100 C30.02 100.99 30.02 100.99 28 102 C28 101.34 28 100.68 28 100 C27.34 100 26.68 100 26 100 C26 100.66 26 101.32 26 102 C24.68 102 23.36 102 22 102 C22 102.66 22 103.32 22 104 C23.32 104 24.64 104 26 104 C26 104.66 26 105.32 26 106 C24.68 106 23.36 106 22 106 C22 107.32 22 108.64 22 110 C21.34 110 20.68 110 20 110 C20 108.68 20 107.36 20 106 C19.34 106 18.68 106 18 106 C18 108.64 18 111.28 18 114 C17.34 114 16.68 114 16 114 C16 113.34 16 112.68 16 112 C15.34 112 14.68 112 14 112 C14 113.32 14 114.64 14 116 C13.34 116 12.68 116 12 116 C12 117.32 12 118.64 12 120 C10.68 120 9.36 120 8 120 C8 120.66 8 121.32 8 122 C8.66 122 9.32 122 10 122 C10 122.66 10 123.32 10 124 C9.34 124 8.68 124 8 124 C8 124.66 8 125.32 8 126 C6.02 126 4.04 126 2 126 C2 126.66 2 127.32 2 128 C1.34 128 0.68 128 0 128 C0 85.76 0 43.52 0 0 Z " fill="#6C13E5" transform="translate(0,0)"/>
<path d="M0 0 C6.93 0 13.86 0 21 0 C21 0.33 21 0.66 21 1 C26.445 1.495 26.445 1.495 32 2 C32 2.66 32 3.32 32 4 C33.32 4 34.64 4 36 4 C36 4.66 36 5.32 36 6 C37.32 6 38.64 6 40 6 C40 6.66 40 7.32 40 8 C40.66 8 41.32 8 42 8 C42 8.66 42 9.32 42 10 C42.66 10 43.32 10 44 10 C44 10.66 44 11.32 44 12 C44.66 12 45.32 12 46 12 C46.02887512 15.64581687 46.04675585 19.29160463 46.0625 22.9375 C46.07087891 23.97841797 46.07925781 25.01933594 46.08789062 26.09179688 C46.09111328 27.08115234 46.09433594 28.07050781 46.09765625 29.08984375 C46.10289307 30.00628662 46.10812988 30.92272949 46.11352539 31.86694336 C46 34 46 34 45 35 C44.76636119 36.84891946 44.58696365 38.70488031 44.4375 40.5625 C44.35371094 41.57441406 44.26992187 42.58632812 44.18359375 43.62890625 C44.12300781 44.41136719 44.06242187 45.19382813 44 46 C43.34 46 42.68 46 42 46 C42 47.98 42 49.96 42 52 C41.34 52 40.68 52 40 52 C40 54.64 40 57.28 40 60 C39.34 60 38.68 60 38 60 C38 60.66 38 61.32 38 62 C37.34 62 36.68 62 36 62 C36 63.98 36 65.96 36 68 C35.34 68 34.68 68 34 68 C34 68.66 34 69.32 34 70 C33.34 70 32.68 70 32 70 C32 70.66 32 71.32 32 72 C31.34 72 30.68 72 30 72 C30 72.66 30 73.32 30 74 C29.34 74 28.68 74 28 74 C28 74.66 28 75.32 28 76 C26.02 76 24.04 76 22 76 C22 77.32 22 78.64 22 80 C19.36 80 16.72 80 14 80 C14 80.66 14 81.32 14 82 C13.34 82 12.68 82 12 82 C12 83.32 12 84.64 12 86 C10.02 86 8.04 86 6 86 C6 86.66 6 87.32 6 88 C-3.24 88 -12.48 88 -22 88 C-22 87.34 -22 86.68 -22 86 C-22.66 86 -23.32 86 -24 86 C-24 85.34 -24 84.68 -24 84 C-25.32 84 -26.64 84 -28 84 C-28 83.34 -28 82.68 -28 82 C-28.66 82 -29.32 82 -30 82 C-30 80.68 -30 79.36 -30 78 C-30.66 78 -31.32 78 -32 78 C-32 76.68 -32 75.36 -32 74 C-32.66 74 -33.32 74 -34 74 C-34 72.68 -34 71.36 -34 70 C-34.66 70 -35.32 70 -36 70 C-36 60.1 -36 50.2 -36 40 C-35.34 40 -34.68 40 -34 40 C-34 38.68 -34 37.36 -34 36 C-33.34 36 -32.68 36 -32 36 C-32 34.68 -32 33.36 -32 32 C-31.34 32 -30.68 32 -30 32 C-30 30.02 -30 28.04 -30 26 C-29.34 26 -28.68 26 -28 26 C-28 25.34 -28 24.68 -28 24 C-27.34 24 -26.68 24 -26 24 C-26 23.34 -26 22.68 -26 22 C-25.34 22 -24.68 22 -24 22 C-24 21.34 -24 20.68 -24 20 C-23.34 20 -22.68 20 -22 20 C-22 19.34 -22 18.68 -22 18 C-21.34 18 -20.68 18 -20 18 C-20 16.68 -20 15.36 -20 14 C-19.34 14 -18.68 14 -18 14 C-18 13.34 -18 12.68 -18 12 C-17.34 12 -16.68 12 -16 12 C-16 11.34 -16 10.68 -16 10 C-14.68 10 -13.36 10 -12 10 C-12 9.34 -12 8.68 -12 8 C-10.68 8 -9.36 8 -8 8 C-8 6.68 -8 5.36 -8 4 C-6.68 4 -5.36 4 -4 4 C-4 3.34 -4 2.68 -4 2 C-2.68 2 -1.36 2 0 2 C0 1.34 0 0.68 0 0 Z " fill="#F8F4E1" transform="translate(124,130)"/>
<path d="M0 0 C41.58 0 83.16 0 126 0 C126 20.46 126 40.92 126 62 C120.06 62 114.12 62 108 62 C108 60.02 108 58.04 108 56 C107.34 56 106.68 56 106 56 C106 52.04 106 48.08 106 44 C104.68 44 103.36 44 102 44 C102 43.34 102 42.68 102 42 C101.34 42 100.68 42 100 42 C100 39.36 100 36.72 100 34 C95.38 34 90.76 34 86 34 C86 33.34 86 32.68 86 32 C82.7 32 79.4 32 76 32 C76 30.68 76 29.36 76 28 C75.34 28 74.68 28 74 28 C74 26.02 74 24.04 74 22 C73.34 22 72.68 22 72 22 C72 22.66 72 23.32 72 24 C70.02 24 68.04 24 66 24 C66 24.66 66 25.32 66 26 C63.36 26 60.72 26 58 26 C58 25.34 58 24.68 58 24 C57.34 24 56.68 24 56 24 C56 23.34 56 22.68 56 22 C49.4 22 42.8 22 36 22 C36 22.66 36 23.32 36 24 C34.02 24 32.04 24 30 24 C30 22.68 30 21.36 30 20 C29.34 20 28.68 20 28 20 C28 19.34 28 18.68 28 18 C27.34 18 26.68 18 26 18 C26 17.34 26 16.68 26 16 C25.34 16 24.68 16 24 16 C24 15.34 24 14.68 24 14 C21.36 14 18.72 14 16 14 C16 13.34 16 12.68 16 12 C12.04 12 8.08 12 4 12 C4 12.66 4 13.32 4 14 C3.34 14 2.68 14 2 14 C2 14.66 2 15.32 2 16 C-1.96 16 -5.92 16 -10 16 C-10 16.66 -10 17.32 -10 18 C-10.66 18 -11.32 18 -12 18 C-12 18.66 -12 19.32 -12 20 C-12.66 20 -13.32 20 -14 20 C-14 21.32 -14 22.64 -14 24 C-14.66 24 -15.32 24 -16 24 C-16 29.28 -16 34.56 -16 40 C-15.34 40 -14.68 40 -14 40 C-14 43.3 -14 46.6 -14 50 C-15.32 50 -16.64 50 -18 50 C-18 50.66 -18 51.32 -18 52 C-19.98 52 -21.96 52 -24 52 C-24 52.66 -24 53.32 -24 54 C-24.66 54 -25.32 54 -26 54 C-26 54.66 -26 55.32 -26 56 C-26.66 56 -27.32 56 -28 56 C-28 56.66 -28 57.32 -28 58 C-28.66 58 -29.32 58 -30 58 C-30 58.66 -30 59.32 -30 60 C-30.66 60 -31.32 60 -32 60 C-32 60.66 -32 61.32 -32 62 C-32.66 62 -33.32 62 -34 62 C-34 62.66 -34 63.32 -34 64 C-35.98 64 -37.96 64 -40 64 C-40 65.32 -40 66.64 -40 68 C-41.32 68 -42.64 68 -44 68 C-44 69.98 -44 71.96 -44 74 C-45.32 74 -46.64 74 -48 74 C-48 74.66 -48 75.32 -48 76 C-49.32 76 -50.64 76 -52 76 C-52 77.98 -52 79.96 -52 82 C-52.66 82 -53.32 82 -54 82 C-54 84.64 -54 87.28 -54 90 C-54.66 90 -55.32 90 -56 90 C-56 90.66 -56 91.32 -56 92 C-57.32 92 -58.64 92 -60 92 C-60 90.68 -60 89.36 -60 88 C-61.32 88 -62.64 88 -64 88 C-64 86.02 -64 84.04 -64 82 C-64.66 82 -65.32 82 -66 82 C-66 81.34 -66 80.68 -66 80 C-66.66 80 -67.32 80 -68 80 C-68 79.34 -68 78.68 -68 78 C-68.66 78 -69.32 78 -70 78 C-70 74.04 -70 70.08 -70 66 C-68.68 66 -67.36 66 -66 66 C-66 66.66 -66 67.32 -66 68 C-65.34 68 -64.68 68 -64 68 C-64 66.68 -64 65.36 -64 64 C-64.66 64 -65.32 64 -66 64 C-66 63.34 -66 62.68 -66 62 C-64.68 62 -63.36 62 -62 62 C-62 62.66 -62 63.32 -62 64 C-61.34 64 -60.68 64 -60 64 C-60 63.34 -60 62.68 -60 62 C-59.34 62 -58.68 62 -58 62 C-58 61.34 -58 60.68 -58 60 C-56.68 60 -55.36 60 -54 60 C-54 59.34 -54 58.68 -54 58 C-53.34 58 -52.68 58 -52 58 C-52 57.34 -52 56.68 -52 56 C-52.66 56 -53.32 56 -54 56 C-54 55.34 -54 54.68 -54 54 C-52.68 54 -51.36 54 -50 54 C-50 52.68 -50 51.36 -50 50 C-50.66 50 -51.32 50 -52 50 C-52 49.34 -52 48.68 -52 48 C-50.68 48 -49.36 48 -48 48 C-48 48.66 -48 49.32 -48 50 C-47.34 50 -46.68 50 -46 50 C-46 49.34 -46 48.68 -46 48 C-45.34 48 -44.68 48 -44 48 C-44 47.34 -44 46.68 -44 46 C-43.34 46 -42.68 46 -42 46 C-42 45.34 -42 44.68 -42 44 C-41.34 44 -40.68 44 -40 44 C-40 41.36 -40 38.72 -40 36 C-39.34 36 -38.68 36 -38 36 C-38 37.32 -38 38.64 -38 40 C-37.34 40 -36.68 40 -36 40 C-36 38.68 -36 37.36 -36 36 C-34.68 36 -33.36 36 -32 36 C-32 35.34 -32 34.68 -32 34 C-33.32 34 -34.64 34 -36 34 C-36 33.34 -36 32.68 -36 32 C-34.68 32 -33.36 32 -32 32 C-32 31.34 -32 30.68 -32 30 C-31.34 30 -30.68 30 -30 30 C-30 31.32 -30 32.64 -30 34 C-29.34 34 -28.68 34 -28 34 C-28 30.7 -28 27.4 -28 24 C-26.68 24 -25.36 24 -24 24 C-24 22.68 -24 21.36 -24 20 C-23.34 20 -22.68 20 -22 20 C-22 20.66 -22 21.32 -22 22 C-21.34 22 -20.68 22 -20 22 C-20 22.66 -20 23.32 -20 24 C-19.34 24 -18.68 24 -18 24 C-18 23.34 -18 22.68 -18 22 C-17.34 22 -16.68 22 -16 22 C-16 20.02 -16 18.04 -16 16 C-16.66 16 -17.32 16 -18 16 C-18 15.34 -18 14.68 -18 14 C-14.7 14 -11.4 14 -8 14 C-8 13.34 -8 12.68 -8 12 C-7.34 12 -6.68 12 -6 12 C-6 11.34 -6 10.68 -6 10 C-6.66 10 -7.32 10 -8 10 C-8 9.34 -8 8.68 -8 8 C-7.34 8 -6.68 8 -6 8 C-6 7.34 -6 6.68 -6 6 C-5.34 6 -4.68 6 -4 6 C-4 4.68 -4 3.36 -4 2 C-2.68 2 -1.36 2 0 2 C0 1.34 0 0.68 0 0 Z " fill="#821ABC" transform="translate(128,0)"/>
<path d="M0 0 C1.98 0 3.96 0 6 0 C6 0.66 6 1.32 6 2 C6.66 2 7.32 2 8 2 C8 52.16 8 102.32 8 154 C-39.52 154 -87.04 154 -136 154 C-136 151.36 -136 148.72 -136 146 C-134.68 146 -133.36 146 -132 146 C-132 146.66 -132 147.32 -132 148 C-130.02 148 -128.04 148 -126 148 C-126 148.66 -126 149.32 -126 150 C-120.72 150 -115.44 150 -110 150 C-110 150.66 -110 151.32 -110 152 C-96.14 152 -82.28 152 -68 152 C-68 151.34 -68 150.68 -68 150 C-66.68 150 -65.36 150 -64 150 C-64 149.34 -64 148.68 -64 148 C-62.02 148 -60.04 148 -58 148 C-58 146.68 -58 145.36 -58 144 C-56.68 144 -55.36 144 -54 144 C-54 143.34 -54 142.68 -54 142 C-53.34 142 -52.68 142 -52 142 C-52 141.34 -52 140.68 -52 140 C-51.34 140 -50.68 140 -50 140 C-50 138.68 -50 137.36 -50 136 C-49.34 136 -48.68 136 -48 136 C-48 135.34 -48 134.68 -48 134 C-47.34 134 -46.68 134 -46 134 C-46 133.34 -46 132.68 -46 132 C-45.34 132 -44.68 132 -44 132 C-44 131.34 -44 130.68 -44 130 C-43.34 130 -42.68 130 -42 130 C-42 129.34 -42 128.68 -42 128 C-41.34 128 -40.68 128 -40 128 C-40 126.68 -40 125.36 -40 124 C-39.34 124 -38.68 124 -38 124 C-38 123.34 -38 122.68 -38 122 C-36.68 122 -35.36 122 -34 122 C-34 121.34 -34 120.68 -34 120 C-33.34 120 -32.68 120 -32 120 C-32 118.02 -32 116.04 -32 114 C-31.34 114 -30.68 114 -30 114 C-30 113.34 -30 112.68 -30 112 C-29.34 112 -28.68 112 -28 112 C-28 111.34 -28 110.68 -28 110 C-27.34 110 -26.68 110 -26 110 C-26 109.34 -26 108.68 -26 108 C-25.34 108 -24.68 108 -24 108 C-24 106.68 -24 105.36 -24 104 C-23.34 104 -22.68 104 -22 104 C-22 102.02 -22 100.04 -22 98 C-20.68 98 -19.36 98 -18 98 C-18 96.68 -18 95.36 -18 94 C-17.34 94 -16.68 94 -16 94 C-16 92.02 -16 90.04 -16 88 C-15.34 88 -14.68 88 -14 88 C-14 86.68 -14 85.36 -14 84 C-13.34 84 -12.68 84 -12 84 C-12 79.38 -12 74.76 -12 70 C-11.34 70 -10.68 70 -10 70 C-10 66.04 -10 62.08 -10 58 C-9.34 58 -8.68 58 -8 58 C-8 55.36 -8 52.72 -8 50 C-7.34 50 -6.68 50 -6 50 C-6 48.68 -6 47.36 -6 46 C-5.34 46 -4.68 46 -4 46 C-4 42.7 -4 39.4 -4 36 C-3.34 36 -2.68 36 -2 36 C-2 32.7 -2 29.4 -2 26 C-1.34 26 -0.68 26 0 26 C0 17.42 0 8.84 0 0 Z " fill="#DFDEDE" transform="translate(246,100)"/>
<path d="M0 0 C3.96 0 7.92 0 12 0 C12 1.32 12 2.64 12 4 C11.34 4 10.68 4 10 4 C10 4.66 10 5.32 10 6 C8.68 6 7.36 6 6 6 C6 13.26 6 20.52 6 28 C6.66 28 7.32 28 8 28 C8 28.66 8 29.32 8 30 C8.66 30 9.32 30 10 30 C10 31.32 10 32.64 10 34 C10.66 34 11.32 34 12 34 C12 34.66 12 35.32 12 36 C12.66 36 13.32 36 14 36 C14 37.32 14 38.64 14 40 C14.66 40 15.32 40 16 40 C16 42.64 16 45.28 16 48 C16.66 48 17.32 48 18 48 C18 48.66 18 49.32 18 50 C18.66 50 19.32 50 20 50 C20 52.64 20 55.28 20 58 C20.66 58 21.32 58 22 58 C22 59.32 22 60.64 22 62 C22.66 62 23.32 62 24 62 C24 63.98 24 65.96 24 68 C25.98 68 27.96 68 30 68 C30 68.66 30 69.32 30 70 C31.32 70 32.64 70 34 70 C34 70.66 34 71.32 34 72 C11.56 72 -10.88 72 -34 72 C-34 60.12 -34 48.24 -34 36 C-33.34 36 -32.68 36 -32 36 C-32 35.34 -32 34.68 -32 34 C-30.68 34 -29.36 34 -28 34 C-28 32.68 -28 31.36 -28 30 C-26.68 30 -25.36 30 -24 30 C-24 29.34 -24 28.68 -24 28 C-22.68 28 -21.36 28 -20 28 C-20 27.34 -20 26.68 -20 26 C-20.66 26 -21.32 26 -22 26 C-22 25.34 -22 24.68 -22 24 C-21.34 24 -20.68 24 -20 24 C-20 23.34 -20 22.68 -20 22 C-18.02 22 -16.04 22 -14 22 C-13.896875 21.4225 -13.79375 20.845 -13.6875 20.25 C-12.89103535 17.64338842 -11.80934723 16.0264689 -10 14 C-9.34 14 -8.68 14 -8 14 C-8 12.68 -8 11.36 -8 10 C-7.34 10 -6.68 10 -6 10 C-6 9.34 -6 8.68 -6 8 C-4.68 8 -3.36 8 -2 8 C-2 6.68 -2 5.36 -2 4 C-1.34 4 -0.68 4 0 4 C0 2.68 0 1.36 0 0 Z " fill="#A32084" transform="translate(34,182)"/>
<path d="M0 0 C5.94 0 11.88 0 18 0 C18 0.66 18 1.32 18 2 C18.66 2 19.32 2 20 2 C20 9.26 20 16.52 20 24 C19.34 24 18.68 24 18 24 C18 24.66 18 25.32 18 26 C17.34 26 16.68 26 16 26 C16 26.66 16 27.32 16 28 C16.66 28 17.32 28 18 28 C18 33.28 18 38.56 18 44 C18.66 44 19.32 44 20 44 C20 44.66 20 45.32 20 46 C20.66 46 21.32 46 22 46 C22 46.66 22 47.32 22 48 C22.66 48 23.32 48 24 48 C24 49.98 24 51.96 24 54 C25.32 54 26.64 54 28 54 C28 55.32 28 56.64 28 58 C29.32 58 30.64 58 32 58 C32 59.98 32 61.96 32 64 C30.02 64 28.04 64 26 64 C26 63.34 26 62.68 26 62 C25.34 62 24.68 62 24 62 C24 60.68 24 59.36 24 58 C23.34 58 22.68 58 22 58 C22 57.34 22 56.68 22 56 C21.34 56 20.68 56 20 56 C20 54.02 20 52.04 20 50 C19.34 50 18.68 50 18 50 C18 51.32 18 52.64 18 54 C17.34 54 16.68 54 16 54 C16 55.32 16 56.64 16 58 C15.34 58 14.68 58 14 58 C14 58.66 14 59.32 14 60 C13.34 60 12.68 60 12 60 C12 60.66 12 61.32 12 62 C10.68 62 9.36 62 8 62 C8 64.64 8 67.28 8 70 C8.66 70 9.32 70 10 70 C10 70.66 10 71.32 10 72 C10.66 72 11.32 72 12 72 C12 73.32 12 74.64 12 76 C12.66 76 13.32 76 14 76 C14 76.66 14 77.32 14 78 C14.66 78 15.32 78 16 78 C16 78.66 16 79.32 16 80 C19.3 80 22.6 80 26 80 C26 81.98 26 83.96 26 86 C22.04 86 18.08 86 14 86 C14 85.34 14 84.68 14 84 C13.34 84 12.68 84 12 84 C12 83.34 12 82.68 12 82 C11.34 82 10.68 82 10 82 C10 81.34 10 80.68 10 80 C9.34 80 8.68 80 8 80 C8 79.34 8 78.68 8 78 C7.34 78 6.68 78 6 78 C6 76.68 6 75.36 6 74 C5.34 74 4.68 74 4 74 C4 73.34 4 72.68 4 72 C3.34 72 2.68 72 2 72 C2 68.7 2 65.4 2 62 C-1.3 62 -4.6 62 -8 62 C-8 61.34 -8 60.68 -8 60 C-9.32 60 -10.64 60 -12 60 C-12 59.34 -12 58.68 -12 58 C-12.66 58 -13.32 58 -14 58 C-14 57.34 -14 56.68 -14 56 C-14.66 56 -15.32 56 -16 56 C-16 55.34 -16 54.68 -16 54 C-16.66 54 -17.32 54 -18 54 C-18 52.02 -18 50.04 -18 48 C-18.66 48 -19.32 48 -20 48 C-20 40.74 -20 33.48 -20 26 C-19.34 26 -18.68 26 -18 26 C-18 25.34 -18 24.68 -18 24 C-17.34 24 -16.68 24 -16 24 C-16 23.34 -16 22.68 -16 22 C-15.34 22 -14.68 22 -14 22 C-14 20.68 -14 19.36 -14 18 C-10.04 18 -6.08 18 -2 18 C-2 12.72 -2 7.44 -2 2 C-1.34 2 -0.68 2 0 2 C0 1.34 0 0.68 0 0 Z " fill="#131015" transform="translate(40,34)"/>
<path d="M0 0 C13.86 0 27.72 0 42 0 C42 20.46 42 40.92 42 62 C36.06 62 30.12 62 24 62 C24 60.02 24 58.04 24 56 C23.34 56 22.68 56 22 56 C22 52.04 22 48.08 22 44 C20.68 44 19.36 44 18 44 C18 43.34 18 42.68 18 42 C17.34 42 16.68 42 16 42 C16 39.36 16 36.72 16 34 C15.34 34 14.68 34 14 34 C14 33.34 14 32.68 14 32 C10.7 32 7.4 32 4 32 C4 31.34 4 30.68 4 30 C3.34 30 2.68 30 2 30 C2 29.34 2 28.68 2 28 C-0.64 28 -3.28 28 -6 28 C-6 27.34 -6 26.68 -6 26 C-6.66 26 -7.32 26 -8 26 C-8 24.02 -8 22.04 -8 20 C-9.98 20 -11.96 20 -14 20 C-13.67 18.68 -13.34 17.36 -13 16 C-12.67 16.66 -12.34 17.32 -12 18 C-10.68 18 -9.36 18 -8 18 C-7.67 16.68 -7.34 15.36 -7 14 C-6.01 14 -5.02 14 -4 14 C-4 13.34 -4 12.68 -4 12 C-4.66 11.67 -5.32 11.34 -6 11 C-4.6875 9.5 -4.6875 9.5 -3 8 C-2.01 8 -1.02 8 0 8 C0 6.68 0 5.36 0 4 C1.32 4 2.64 4 4 4 C4 3.34 4 2.68 4 2 C2.68 2 1.36 2 0 2 C0 1.34 0 0.68 0 0 Z " fill="#A32183" transform="translate(212,0)"/>
<path d="M0 0 C11.88 0 23.76 0 36 0 C36 0.66 36 1.32 36 2 C34.68 2 33.36 2 32 2 C32 3.32 32 4.64 32 6 C31.34 6 30.68 6 30 6 C30 6.66 30 7.32 30 8 C29.34 8 28.68 8 28 8 C28 8.66 28 9.32 28 10 C28.66 10 29.32 10 30 10 C30 10.66 30 11.32 30 12 C29.34 12 28.68 12 28 12 C28 12.66 28 13.32 28 14 C24.7 14 21.4 14 18 14 C18 14.66 18 15.32 18 16 C18.66 16 19.32 16 20 16 C20 17.98 20 19.96 20 22 C19.34 22 18.68 22 18 22 C18 22.66 18 23.32 18 24 C17.34 24 16.68 24 16 24 C16 23.34 16 22.68 16 22 C15.34 22 14.68 22 14 22 C14 21.34 14 20.68 14 20 C13.34 20 12.68 20 12 20 C12 21.32 12 22.64 12 24 C10.68 24 9.36 24 8 24 C8 27.3 8 30.6 8 34 C7.34 34 6.68 34 6 34 C6 32.68 6 31.36 6 30 C5.34 30 4.68 30 4 30 C4 30.66 4 31.32 4 32 C2.68 32 1.36 32 0 32 C0 32.66 0 33.32 0 34 C1.32 34 2.64 34 4 34 C4 34.66 4 35.32 4 36 C2.68 36 1.36 36 0 36 C0 37.32 0 38.64 0 40 C-0.66 40 -1.32 40 -2 40 C-2 38.68 -2 37.36 -2 36 C-2.66 36 -3.32 36 -4 36 C-4 38.64 -4 41.28 -4 44 C-4.66 44 -5.32 44 -6 44 C-6 44.66 -6 45.32 -6 46 C-6.66 46 -7.32 46 -8 46 C-8 46.66 -8 47.32 -8 48 C-8.66 48 -9.32 48 -10 48 C-10 48.66 -10 49.32 -10 50 C-10.66 50 -11.32 50 -12 50 C-12 49.34 -12 48.68 -12 48 C-13.32 48 -14.64 48 -16 48 C-16 48.66 -16 49.32 -16 50 C-15.34 50 -14.68 50 -14 50 C-14 51.32 -14 52.64 -14 54 C-15.32 54 -16.64 54 -18 54 C-18 54.66 -18 55.32 -18 56 C-17.34 56 -16.68 56 -16 56 C-16 56.66 -16 57.32 -16 58 C-16.66 58 -17.32 58 -18 58 C-18 58.66 -18 59.32 -18 60 C-19.32 60 -20.64 60 -22 60 C-22 60.66 -22 61.32 -22 62 C-22.66 62 -23.32 62 -24 62 C-24 62.66 -24 63.32 -24 64 C-24.66 64 -25.32 64 -26 64 C-26 63.34 -26 62.68 -26 62 C-27.32 62 -28.64 62 -30 62 C-30 62.66 -30 63.32 -30 64 C-29.34 64 -28.68 64 -28 64 C-28 65.32 -28 66.64 -28 68 C-28.66 68 -29.32 68 -30 68 C-30 67.34 -30 66.68 -30 66 C-31.32 66 -32.64 66 -34 66 C-34 64.68 -34 63.36 -34 62 C-34.66 62 -35.32 62 -36 62 C-36 61.34 -36 60.68 -36 60 C-35.34 60 -34.68 60 -34 60 C-34 59.34 -34 58.68 -34 58 C-33.34 58 -32.68 58 -32 58 C-32 50.74 -32 43.48 -32 36 C-31.34 36 -30.68 36 -30 36 C-30 35.34 -30 34.68 -30 34 C-29.34 34 -28.68 34 -28 34 C-28 33.34 -28 32.68 -28 32 C-27.34 32 -26.68 32 -26 32 C-26 30.02 -26 28.04 -26 26 C-25.34 26 -24.68 26 -24 26 C-24 25.34 -24 24.68 -24 24 C-23.34 24 -22.68 24 -22 24 C-22 23.34 -22 22.68 -22 22 C-21.34 22 -20.68 22 -20 22 C-20 21.34 -20 20.68 -20 20 C-18.02 20 -16.04 20 -14 20 C-14 17.36 -14 14.72 -14 12 C-13.34 12 -12.68 12 -12 12 C-12 14.64 -12 17.28 -12 20 C-11.34 20 -10.68 20 -10 20 C-10 18.68 -10 17.36 -10 16 C-9.34 16 -8.68 16 -8 16 C-8 15.34 -8 14.68 -8 14 C-7.34 14 -6.68 14 -6 14 C-6 13.34 -6 12.68 -6 12 C-5.34 12 -4.68 12 -4 12 C-4 11.34 -4 10.68 -4 10 C-4.66 10 -5.32 10 -6 10 C-6 8.68 -6 7.36 -6 6 C-5.34 6 -4.68 6 -4 6 C-4 5.34 -4 4.68 -4 4 C-3.34 4 -2.68 4 -2 4 C-2 3.34 -2 2.68 -2 2 C-1.34 2 -0.68 2 0 2 C0 1.34 0 0.68 0 0 Z " fill="#7916CC" transform="translate(92,0)"/>
<path d="M0 0 C1.32 0 2.64 0 4 0 C4 2.64 4 5.28 4 8 C3.34 8 2.68 8 2 8 C2 9.98 2 11.96 2 14 C1.34 14 0.68 14 0 14 C0 15.32 0 16.64 0 18 C-0.66 18 -1.32 18 -2 18 C-2 19.32 -2 20.64 -2 22 C-2.66 22 -3.32 22 -4 22 C-4 24.64 -4 27.28 -4 30 C-4.66 30 -5.32 30 -6 30 C-6 30.66 -6 31.32 -6 32 C-3.36 32 -0.72 32 2 32 C2 33.98 2 35.96 2 38 C0.02 38 -1.96 38 -4 38 C-4 37.34 -4 36.68 -4 36 C-9.28 36 -14.56 36 -20 36 C-20 38.64 -20 41.28 -20 44 C-20.66 44 -21.32 44 -22 44 C-22 45.98 -22 47.96 -22 50 C-21.34 50 -20.68 50 -20 50 C-20 50.66 -20 51.32 -20 52 C-19.34 52 -18.68 52 -18 52 C-18 52.66 -18 53.32 -18 54 C-16.68 54 -15.36 54 -14 54 C-14 55.32 -14 56.64 -14 58 C-15.32 58 -16.64 58 -18 58 C-18 58.66 -18 59.32 -18 60 C-18.66 60 -19.32 60 -20 60 C-20 61.32 -20 62.64 -20 64 C-20.66 64 -21.32 64 -22 64 C-22.28875 64.5775 -22.5775 65.155 -22.875 65.75 C-23.91666667 67.83333333 -24.95833333 69.91666667 -26 72 C-27.98 72 -29.96 72 -32 72 C-32 72.66 -32 73.32 -32 74 C-32.66 74 -33.32 74 -34 74 C-34 74.66 -34 75.32 -34 76 C-33.34 76 -32.68 76 -32 76 C-32 76.66 -32 77.32 -32 78 C-33.32 78 -34.64 78 -36 78 C-36 78.66 -36 79.32 -36 80 C-37.32 80 -38.64 80 -40 80 C-40 81.32 -40 82.64 -40 84 C-41.32 84 -42.64 84 -44 84 C-44 84.66 -44 85.32 -44 86 C-44.66 86 -45.32 86 -46 86 C-46 71.48 -46 56.96 -46 42 C-44.02 42 -42.04 42 -40 42 C-40 41.34 -40 40.68 -40 40 C-38.68 40 -37.36 40 -36 40 C-36 38.68 -36 37.36 -36 36 C-35.34 36 -34.68 36 -34 36 C-34 35.34 -34 34.68 -34 34 C-32.68 34 -31.36 34 -30 34 C-30 33.34 -30 32.68 -30 32 C-28.68 32 -27.36 32 -26 32 C-26 31.34 -26 30.68 -26 30 C-27.98 30 -29.96 30 -32 30 C-32 29.34 -32 28.68 -32 28 C-30.68 28 -29.36 28 -28 28 C-28 26.68 -28 25.36 -28 24 C-27.34 24 -26.68 24 -26 24 C-26 25.32 -26 26.64 -26 28 C-25.34 28 -24.68 28 -24 28 C-24 27.34 -24 26.68 -24 26 C-23.34 26 -22.68 26 -22 26 C-22 25.34 -22 24.68 -22 24 C-21.34 24 -20.68 24 -20 24 C-20 23.34 -20 22.68 -20 22 C-20.66 22 -21.32 22 -22 22 C-22 21.34 -22 20.68 -22 20 C-20.68 20 -19.36 20 -18 20 C-18 19.34 -18 18.68 -18 18 C-18.66 18 -19.32 18 -20 18 C-20 17.34 -20 16.68 -20 16 C-18.02 16 -16.04 16 -14 16 C-14 14.02 -14 12.04 -14 10 C-13.34 10 -12.68 10 -12 10 C-12 11.32 -12 12.64 -12 14 C-11.34 14 -10.68 14 -10 14 C-10 12.68 -10 11.36 -10 10 C-9.34 10 -8.68 10 -8 10 C-8 9.34 -8 8.68 -8 8 C-7.34 8 -6.68 8 -6 8 C-6 7.34 -6 6.68 -6 6 C-5.34 6 -4.68 6 -4 6 C-4 5.34 -4 4.68 -4 4 C-4.66 4 -5.32 4 -6 4 C-6 3.34 -6 2.68 -6 2 C-4.68 2 -3.36 2 -2 2 C-2 2.66 -2 3.32 -2 4 C-1.34 4 -0.68 4 0 4 C0 2.68 0 1.36 0 0 Z " fill="#911EA0" transform="translate(46,132)"/>
<path d="M0 0 C6.93 0 13.86 0 21 0 C21 0.33 21 0.66 21 1 C26.445 1.495 26.445 1.495 32 2 C32 2.66 32 3.32 32 4 C33.32 4 34.64 4 36 4 C36 4.66 36 5.32 36 6 C37.32 6 38.64 6 40 6 C40 6.66 40 7.32 40 8 C40.66 8 41.32 8 42 8 C42 8.66 42 9.32 42 10 C42.66 10 43.32 10 44 10 C44 10.66 44 11.32 44 12 C44.66 12 45.32 12 46 12 C46.02887512 15.64581687 46.04675585 19.29160463 46.0625 22.9375 C46.07087891 23.97841797 46.07925781 25.01933594 46.08789062 26.09179688 C46.09111328 27.08115234 46.09433594 28.07050781 46.09765625 29.08984375 C46.10289307 30.00628662 46.10812988 30.92272949 46.11352539 31.86694336 C46 34 46 34 45 35 C44.76636119 36.84891946 44.58696365 38.70488031 44.4375 40.5625 C44.35371094 41.57441406 44.26992187 42.58632812 44.18359375 43.62890625 C44.12300781 44.41136719 44.06242187 45.19382813 44 46 C43.34 46 42.68 46 42 46 C42 47.98 42 49.96 42 52 C41.34 52 40.68 52 40 52 C40 54.64 40 57.28 40 60 C39.34 60 38.68 60 38 60 C38 60.66 38 61.32 38 62 C37.34 62 36.68 62 36 62 C36 63.98 36 65.96 36 68 C35.34 68 34.68 68 34 68 C34 68.66 34 69.32 34 70 C33.34 70 32.68 70 32 70 C32 70.66 32 71.32 32 72 C31.34 72 30.68 72 30 72 C30 72.66 30 73.32 30 74 C29.34 74 28.68 74 28 74 C28 74.66 28 75.32 28 76 C26.02 76 24.04 76 22 76 C22 77.32 22 78.64 22 80 C19.36 80 16.72 80 14 80 C14 80.66 14 81.32 14 82 C13.34 82 12.68 82 12 82 C12 83.32 12 84.64 12 86 C10.02 86 8.04 86 6 86 C6 86.66 6 87.32 6 88 C-3.24 88 -12.48 88 -22 88 C-22 87.34 -22 86.68 -22 86 C-22.66 86 -23.32 86 -24 86 C-24 85.34 -24 84.68 -24 84 C-25.32 84 -26.64 84 -28 84 C-28 83.34 -28 82.68 -28 82 C-28.66 82 -29.32 82 -30 82 C-30 80.68 -30 79.36 -30 78 C-30.66 78 -31.32 78 -32 78 C-32 76.68 -32 75.36 -32 74 C-32.66 74 -33.32 74 -34 74 C-34 72.68 -34 71.36 -34 70 C-34.66 70 -35.32 70 -36 70 C-36 60.1 -36 50.2 -36 40 C-35.34 40 -34.68 40 -34 40 C-34 38.68 -34 37.36 -34 36 C-33.34 36 -32.68 36 -32 36 C-32 34.68 -32 33.36 -32 32 C-31.34 32 -30.68 32 -30 32 C-30 30.02 -30 28.04 -30 26 C-29.34 26 -28.68 26 -28 26 C-28 25.34 -28 24.68 -28 24 C-27.34 24 -26.68 24 -26 24 C-26 23.34 -26 22.68 -26 22 C-25.34 22 -24.68 22 -24 22 C-24 21.34 -24 20.68 -24 20 C-23.34 20 -22.68 20 -22 20 C-22 19.34 -22 18.68 -22 18 C-21.34 18 -20.68 18 -20 18 C-20 16.68 -20 15.36 -20 14 C-19.34 14 -18.68 14 -18 14 C-18 13.34 -18 12.68 -18 12 C-17.34 12 -16.68 12 -16 12 C-16 11.34 -16 10.68 -16 10 C-14.68 10 -13.36 10 -12 10 C-12 9.34 -12 8.68 -12 8 C-10.68 8 -9.36 8 -8 8 C-8 6.68 -8 5.36 -8 4 C-6.68 4 -5.36 4 -4 4 C-4 3.34 -4 2.68 -4 2 C-2.68 2 -1.36 2 0 2 C0 1.34 0 0.68 0 0 Z M6 4 C6 4.66 6 5.32 6 6 C4.68 6 3.36 6 2 6 C2 6.66 2 7.32 2 8 C0.68 8 -0.64 8 -2 8 C-2 8.66 -2 9.32 -2 10 C-2.66 10 -3.32 10 -4 10 C-4 10.66 -4 11.32 -4 12 C-4.66 12 -5.32 12 -6 12 C-6 12.66 -6 13.32 -6 14 C-7.32 14 -8.64 14 -10 14 C-10 14.66 -10 15.32 -10 16 C-10.66 16 -11.32 16 -12 16 C-12 16.66 -12 17.32 -12 18 C-12.66 18 -13.32 18 -14 18 C-14 18.66 -14 19.32 -14 20 C-14.66 20 -15.32 20 -16 20 C-16 22.64 -16 25.28 -16 28 C-17.98 28 -19.96 28 -22 28 C-22 29.32 -22 30.64 -22 32 C-22.66 32 -23.32 32 -24 32 C-24 32.66 -24 33.32 -24 34 C-24.66 34 -25.32 34 -26 34 C-26 35.32 -26 36.64 -26 38 C-26.66 38 -27.32 38 -28 38 C-28 39.32 -28 40.64 -28 42 C-28.66 42 -29.32 42 -30 42 C-30 50.58 -30 59.16 -30 68 C-29.34 68 -28.68 68 -28 68 C-28 69.32 -28 70.64 -28 72 C-27.34 72 -26.68 72 -26 72 C-26 73.32 -26 74.64 -26 76 C-25.34 76 -24.68 76 -24 76 C-24 77.32 -24 78.64 -24 80 C-22.68 80 -21.36 80 -20 80 C-20 80.66 -20 81.32 -20 82 C-18.68 82 -17.36 82 -16 82 C-16 82.66 -16 83.32 -16 84 C-10.72 84 -5.44 84 0 84 C0 83.34 0 82.68 0 82 C0.66 82 1.32 82 2 82 C2 81.34 2 80.68 2 80 C3.98 80 5.96 80 8 80 C8 79.34 8 78.68 8 78 C8.66 78 9.32 78 10 78 C10 77.34 10 76.68 10 76 C11.32 76 12.64 76 14 76 C14 75.34 14 74.68 14 74 C15.32 74 16.64 74 18 74 C18 73.34 18 72.68 18 72 C19.98 72 21.96 72 24 72 C24 71.34 24 70.68 24 70 C24.66 70 25.32 70 26 70 C26 69.34 26 68.68 26 68 C26.66 68 27.32 68 28 68 C28 67.34 28 66.68 28 66 C28.66 66 29.32 66 30 66 C30 64.68 30 63.36 30 62 C30.66 62 31.32 62 32 62 C32 60.02 32 58.04 32 56 C32.66 56 33.32 56 34 56 C34 53.36 34 50.72 34 48 C34.66 48 35.32 48 36 48 C36 47.34 36 46.68 36 46 C36.66 46 37.32 46 38 46 C38 44.68 38 43.36 38 42 C38.66 42 39.32 42 40 42 C40 37.38 40 32.76 40 28 C40.66 28 41.32 28 42 28 C42 23.38 42 18.76 42 14 C40.68 14 39.36 14 38 14 C38 13.34 38 12.68 38 12 C36.68 12 35.36 12 34 12 C34 11.34 34 10.68 34 10 C33.34 10 32.68 10 32 10 C32 9.34 32 8.68 32 8 C30.02 8 28.04 8 26 8 C26 7.34 26 6.68 26 6 C22.7 6 19.4 6 16 6 C16 5.34 16 4.68 16 4 C12.7 4 9.4 4 6 4 Z " fill="#FDFCF9" transform="translate(124,130)"/>
<path d="M0 0 C6.6 0 13.2 0 20 0 C20 0.66 20 1.32 20 2 C20.66 2 21.32 2 22 2 C22 2.66 22 3.32 22 4 C24.64 4 27.28 4 30 4 C30 3.34 30 2.68 30 2 C31.98 2 33.96 2 36 2 C36 1.34 36 0.68 36 0 C36.66 0 37.32 0 38 0 C38 1.98 38 3.96 38 6 C38.66 6 39.32 6 40 6 C40 7.32 40 8.64 40 10 C43.3 10 46.6 10 50 10 C50 10.66 50 11.32 50 12 C54.62 12 59.24 12 64 12 C64 14.64 64 17.28 64 20 C64.66 20 65.32 20 66 20 C66 20.66 66 21.32 66 22 C67.32 22 68.64 22 70 22 C70 25.96 70 29.92 70 34 C70.66 34 71.32 34 72 34 C72 35.98 72 37.96 72 40 C77.94 40 83.88 40 90 40 C90 41.32 90 42.64 90 44 C89.34 44 88.68 44 88 44 C88 43.34 88 42.68 88 42 C78.1 42 68.2 42 58 42 C58 41.34 58 40.68 58 40 C56.68 40 55.36 40 54 40 C54 38.02 54 36.04 54 34 C53.34 34 52.68 34 52 34 C52 33.34 52 32.68 52 32 C51.34 32 50.68 32 50 32 C50 30.68 50 29.36 50 28 C49.34 28 48.68 28 48 28 C48 26.68 48 25.36 48 24 C47.34 24 46.68 24 46 24 C46 23.34 46 22.68 46 22 C43.36 22 40.72 22 38 22 C38 21.34 38 20.68 38 20 C34.04 20 30.08 20 26 20 C26 19.34 26 18.68 26 18 C25.34 18 24.68 18 24 18 C24 17.34 24 16.68 24 16 C19.38 16 14.76 16 10 16 C10 15.34 10 14.68 10 14 C7.36 14 4.72 14 2 14 C2 13.34 2 12.68 2 12 C1.34 12 0.68 12 0 12 C0 10.02 0 8.04 0 6 C-1.32 6 -2.64 6 -4 6 C-4 4.68 -4 3.36 -4 2 C-2.68 2 -1.36 2 0 2 C0 1.34 0 0.68 0 0 Z " fill="#E0DFDE" transform="translate(164,22)"/>
<path d="M0 0 C6.6 0 13.2 0 20 0 C20 0.66 20 1.32 20 2 C22.64 2 25.28 2 28 2 C28 2.66 28 3.32 28 4 C29.98 4 31.96 4 34 4 C34 8.62 34 13.24 34 18 C33.34 18 32.68 18 32 18 C32 20.64 32 23.28 32 26 C30.68 26 29.36 26 28 26 C28 27.32 28 28.64 28 30 C27.34 30 26.68 30 26 30 C26 30.66 26 31.32 26 32 C18.74 32 11.48 32 4 32 C4 31.34 4 30.68 4 30 C2.02 30 0.04 30 -2 30 C-2 28.02 -2 26.04 -2 24 C-2.66 24 -3.32 24 -4 24 C-4 22.68 -4 21.36 -4 20 C-4.66 20 -5.32 20 -6 20 C-6 19.34 -6 18.68 -6 18 C-6.66 18 -7.32 18 -8 18 C-8 16.68 -8 15.36 -8 14 C-7.34 14 -6.68 14 -6 14 C-6 12.68 -6 11.36 -6 10 C-5.34 10 -4.68 10 -4 10 C-4 9.34 -4 8.68 -4 8 C-2.68 8 -1.36 8 0 8 C0 6.68 0 5.36 0 4 C-0.66 4 -1.32 4 -2 4 C-2 3.34 -2 2.68 -2 2 C-1.34 2 -0.68 2 0 2 C0 1.34 0 0.68 0 0 Z " fill="#DADAD9" transform="translate(144,90)"/>
<path d="M0 0 C1.32 0 2.64 0 4 0 C4 17.16 4 34.32 4 52 C-7.22 52 -18.44 52 -30 52 C-30 51.34 -30 50.68 -30 50 C-29.34 50 -28.68 50 -28 50 C-28 46.04 -28 42.08 -28 38 C-27.34 38 -26.68 38 -26 38 C-26 36.02 -26 34.04 -26 32 C-25.34 32 -24.68 32 -24 32 C-24 31.34 -24 30.68 -24 30 C-23.34 30 -22.68 30 -22 30 C-22 28.02 -22 26.04 -22 24 C-20.02 24 -18.04 24 -16 24 C-16 23.34 -16 22.68 -16 22 C-14.68 22 -13.36 22 -12 22 C-12 20.68 -12 19.36 -12 18 C-10.68 18 -9.36 18 -8 18 C-8 16.02 -8 14.04 -8 12 C-7.34 12 -6.68 12 -6 12 C-6 11.34 -6 10.68 -6 10 C-5.34 10 -4.68 10 -4 10 C-4 9.34 -4 8.68 -4 8 C-2.68 8 -1.36 8 0 8 C0 5.36 0 2.72 0 0 Z " fill="#E83526" transform="translate(250,202)"/>
<path d="M0 0 C15.18 0 30.36 0 46 0 C46 0.66 46 1.32 46 2 C47.32 2 48.64 2 50 2 C50 2.66 50 3.32 50 4 C48.68 4 47.36 4 46 4 C46 5.32 46 6.64 46 8 C43.5 9.75 43.5 9.75 41 11 C41.495 12.485 41.495 12.485 42 14 C41.01 14.33 40.02 14.66 39 15 C38.67 15.99 38.34 16.98 38 18 C36.35 17.67 34.7 17.34 33 17 C32.505 19.475 32.505 19.475 32 22 C30.02 22 28.04 22 26 22 C26 22.66 26 23.32 26 24 C24.68 24 23.36 24 22 24 C22 23.34 22 22.68 22 22 C21.34 22 20.68 22 20 22 C20 21.34 20 20.68 20 20 C12.08 20 4.16 20 -4 20 C-4 20.66 -4 21.32 -4 22 C-4.66 22 -5.32 22 -6 22 C-6 20.68 -6 19.36 -6 18 C-6.66 18 -7.32 18 -8 18 C-8 17.34 -8 16.68 -8 16 C-8.66 16 -9.32 16 -10 16 C-10 15.34 -10 14.68 -10 14 C-10.66 14 -11.32 14 -12 14 C-12 13.34 -12 12.68 -12 12 C-12.66 12 -13.32 12 -14 12 C-14 11.34 -14 10.68 -14 10 C-12.02 10 -10.04 10 -8 10 C-8 9.34 -8 8.68 -8 8 C-7.34 8 -6.68 8 -6 8 C-6 6.02 -6 4.04 -6 2 C-4.02 2 -2.04 2 0 2 C0 1.34 0 0.68 0 0 Z " fill="#8E1CA7" transform="translate(166,0)"/>
<path d="M0 0 C0.66 0 1.32 0 2 0 C2 0.66 2 1.32 2 2 C2.66 2 3.32 2 4 2 C4 3.32 4 4.64 4 6 C4.66 6 5.32 6 6 6 C6 7.98 6 9.96 6 12 C6.66 12 7.32 12 8 12 C8 12.66 8 13.32 8 14 C8.66 14 9.32 14 10 14 C10 14.66 10 15.32 10 16 C10.66 16 11.32 16 12 16 C12 16.66 12 17.32 12 18 C13.32 18 14.64 18 16 18 C16 19.98 16 21.96 16 24 C14.02 24.99 14.02 24.99 12 26 C12 25.34 12 24.68 12 24 C11.34 24 10.68 24 10 24 C10 24.66 10 25.32 10 26 C8.68 26 7.36 26 6 26 C6 26.66 6 27.32 6 28 C7.32 28 8.64 28 10 28 C10 28.66 10 29.32 10 30 C8.68 30 7.36 30 6 30 C6 31.32 6 32.64 6 34 C5.34 34 4.68 34 4 34 C4 32.68 4 31.36 4 30 C3.34 30 2.68 30 2 30 C2 32.64 2 35.28 2 38 C1.34 38 0.68 38 0 38 C0 37.34 0 36.68 0 36 C-0.66 36 -1.32 36 -2 36 C-2 37.32 -2 38.64 -2 40 C-2.66 40 -3.32 40 -4 40 C-4 41.32 -4 42.64 -4 44 C-5.32 44 -6.64 44 -8 44 C-8 44.66 -8 45.32 -8 46 C-7.34 46 -6.68 46 -6 46 C-6 46.66 -6 47.32 -6 48 C-6.66 48 -7.32 48 -8 48 C-8 48.66 -8 49.32 -8 50 C-9.98 50 -11.96 50 -14 50 C-14 50.66 -14 51.32 -14 52 C-14.66 52 -15.32 52 -16 52 C-16.0991017 45.98605117 -16.17157916 39.97258085 -16.21972656 33.95800781 C-16.2398042 31.9133272 -16.26707225 29.86870373 -16.30175781 27.82421875 C-16.35044519 24.88006463 -16.37300744 21.93667166 -16.390625 18.9921875 C-16.41127014 18.0825827 -16.43191528 17.17297791 -16.45318604 16.23580933 C-16.45519174 10.52361711 -15.7927813 7.35548513 -12 3 C-9.75 2.125 -9.75 2.125 -8 2 C-8 2.66 -8 3.32 -8 4 C-8.66 4 -9.32 4 -10 4 C-10 4.66 -10 5.32 -10 6 C-8.68 6 -7.36 6 -6 6 C-6 6.66 -6 7.32 -6 8 C-5.34 8 -4.68 8 -4 8 C-4 7.34 -4 6.68 -4 6 C-3.34 6 -2.68 6 -2 6 C-2 6.66 -2 7.32 -2 8 C-1.34 8 -0.68 8 0 8 C0 7.34 0 6.68 0 6 C0.66 6 1.32 6 2 6 C2 5.34 2 4.68 2 4 C1.34 4 0.68 4 0 4 C0 2.68 0 1.36 0 0 Z " fill="#7816CD" transform="translate(16,76)"/>
<path d="M0 0 C12.54 0 25.08 0 38 0 C38 0.66 38 1.32 38 2 C36.02 2 34.04 2 32 2 C32 3.98 32 5.96 32 8 C31.34 8 30.68 8 30 8 C30 8.66 30 9.32 30 10 C28.02 10 26.04 10 24 10 C24 10.66 24 11.32 24 12 C24.66 12 25.32 12 26 12 C26 12.66 26 13.32 26 14 C26.66 14 27.32 14 28 14 C28 14.66 28 15.32 28 16 C28.66 16 29.32 16 30 16 C30 16.66 30 17.32 30 18 C30.66 18 31.32 18 32 18 C32 19.32 32 20.64 32 22 C32.66 22 33.32 22 34 22 C34 21.34 34 20.68 34 20 C41.92 20 49.84 20 58 20 C58 20.66 58 21.32 58 22 C58.66 22 59.32 22 60 22 C60 22.66 60 23.32 60 24 C61.32 24 62.64 24 64 24 C64 23.34 64 22.68 64 22 C65.98 22 67.96 22 70 22 C70 21.34 70 20.68 70 20 C71.98 20 73.96 20 76 20 C76 21.98 76 23.96 76 26 C76.66 26 77.32 26 78 26 C78 26.66 78 27.32 78 28 C80.64 28 83.28 28 86 28 C86 28.66 86 29.32 86 30 C86.66 30 87.32 30 88 30 C88 30.66 88 31.32 88 32 C91.3 32 94.6 32 98 32 C98 32.66 98 33.32 98 34 C94.04 34 90.08 34 86 34 C86 33.34 86 32.68 86 32 C82.7 32 79.4 32 76 32 C76 30.68 76 29.36 76 28 C75.34 28 74.68 28 74 28 C74 26.02 74 24.04 74 22 C73.34 22 72.68 22 72 22 C72 22.66 72 23.32 72 24 C70.02 24 68.04 24 66 24 C66 24.66 66 25.32 66 26 C63.36 26 60.72 26 58 26 C58 25.34 58 24.68 58 24 C57.34 24 56.68 24 56 24 C56 23.34 56 22.68 56 22 C49.4 22 42.8 22 36 22 C36 22.66 36 23.32 36 24 C34.02 24 32.04 24 30 24 C30 22.68 30 21.36 30 20 C29.34 20 28.68 20 28 20 C28 19.34 28 18.68 28 18 C27.34 18 26.68 18 26 18 C26 17.34 26 16.68 26 16 C25.34 16 24.68 16 24 16 C24 15.34 24 14.68 24 14 C21.36 14 18.72 14 16 14 C16 13.34 16 12.68 16 12 C12.04 12 8.08 12 4 12 C4 12.66 4 13.32 4 14 C3.34 14 2.68 14 2 14 C2 14.66 2 15.32 2 16 C-1.96 16 -5.92 16 -10 16 C-10 16.66 -10 17.32 -10 18 C-10.66 18 -11.32 18 -12 18 C-12 18.66 -12 19.32 -12 20 C-12.66 20 -13.32 20 -14 20 C-14 21.32 -14 22.64 -14 24 C-14.66 24 -15.32 24 -16 24 C-16 29.28 -16 34.56 -16 40 C-15.34 40 -14.68 40 -14 40 C-14 43.3 -14 46.6 -14 50 C-15.32 50 -16.64 50 -18 50 C-18 50.66 -18 51.32 -18 52 C-18.66 52 -19.32 52 -20 52 C-20 50.68 -20 49.36 -20 48 C-18.68 48 -17.36 48 -16 48 C-16 46.02 -16 44.04 -16 42 C-16.66 42 -17.32 42 -18 42 C-18 35.4 -18 28.8 -18 22 C-17.34 22 -16.68 22 -16 22 C-16 20.02 -16 18.04 -16 16 C-16.66 16 -17.32 16 -18 16 C-18 15.34 -18 14.68 -18 14 C-14.7 14 -11.4 14 -8 14 C-8 13.34 -8 12.68 -8 12 C-7.34 12 -6.68 12 -6 12 C-6 11.34 -6 10.68 -6 10 C-6.66 10 -7.32 10 -8 10 C-8 9.34 -8 8.68 -8 8 C-7.34 8 -6.68 8 -6 8 C-6 7.34 -6 6.68 -6 6 C-5.34 6 -4.68 6 -4 6 C-4 4.68 -4 3.36 -4 2 C-2.68 2 -1.36 2 0 2 C0 1.34 0 0.68 0 0 Z " fill="#8319BB" transform="translate(128,0)"/>
<path d="M0 0 C0.66 0 1.32 0 2 0 C2 0.66 2 1.32 2 2 C2.66 2 3.32 2 4 2 C4 2.66 4 3.32 4 4 C4.66 4 5.32 4 6 4 C6 4.66 6 5.32 6 6 C7.32 6 8.64 6 10 6 C10 6.66 10 7.32 10 8 C9.34 8 8.68 8 8 8 C8 9.32 8 10.64 8 12 C7.34 12 6.68 12 6 12 C6 13.98 6 15.96 6 18 C5.34 18 4.68 18 4 18 C4 19.32 4 20.64 4 22 C3.34 22 2.68 22 2 22 C2 20.68 2 19.36 2 18 C0.68 18 -0.64 18 -2 18 C-2 19.32 -2 20.64 -2 22 C-2.66 22 -3.32 22 -4 22 C-4 21.34 -4 20.68 -4 20 C-5.32 20 -6.64 20 -8 20 C-8 20.66 -8 21.32 -8 22 C-7.34 22 -6.68 22 -6 22 C-6 22.66 -6 23.32 -6 24 C-6.66 24 -7.32 24 -8 24 C-8 24.66 -8 25.32 -8 26 C-8.66 26 -9.32 26 -10 26 C-10 26.66 -10 27.32 -10 28 C-10.66 28 -11.32 28 -12 28 C-12 29.32 -12 30.64 -12 32 C-12.66 32 -13.32 32 -14 32 C-14 30.68 -14 29.36 -14 28 C-14.66 28 -15.32 28 -16 28 C-16 29.98 -16 31.96 -16 34 C-17.98 34 -19.96 34 -22 34 C-22 34.66 -22 35.32 -22 36 C-21.34 36 -20.68 36 -20 36 C-20 36.66 -20 37.32 -20 38 C-21.32 38 -22.64 38 -24 38 C-24 38.66 -24 39.32 -24 40 C-23.34 40 -22.68 40 -22 40 C-22 40.66 -22 41.32 -22 42 C-22.66 42 -23.32 42 -24 42 C-24 42.66 -24 43.32 -24 44 C-24.66 44 -25.32 44 -26 44 C-26 44.66 -26 45.32 -26 46 C-26.66 46 -27.32 46 -28 46 C-28 44.68 -28 43.36 -28 42 C-28.66 42 -29.32 42 -30 42 C-30 43.32 -30 44.64 -30 46 C-31.32 46 -32.64 46 -34 46 C-34 46.66 -34 47.32 -34 48 C-32.02 48 -30.04 48 -28 48 C-28 48.66 -28 49.32 -28 50 C-29.32 50 -30.64 50 -32 50 C-32 50.66 -32 51.32 -32 52 C-33.32 52 -34.64 52 -36 52 C-36 52.66 -36 53.32 -36 54 C-36.66 54 -37.32 54 -38 54 C-38 55.32 -38 56.64 -38 58 C-39.32 58 -40.64 58 -42 58 C-42 58.66 -42 59.32 -42 60 C-43.98 60 -45.96 60 -48 60 C-48 56.7 -48 53.4 -48 50 C-46.68 50 -45.36 50 -44 50 C-44 49.34 -44 48.68 -44 48 C-44.66 48 -45.32 48 -46 48 C-46 47.34 -46 46.68 -46 46 C-45.34 46 -44.68 46 -44 46 C-44 45.34 -44 44.68 -44 44 C-43.34 44 -42.68 44 -42 44 C-42 42.68 -42 41.36 -42 40 C-41.34 40 -40.68 40 -40 40 C-40 41.32 -40 42.64 -40 44 C-39.34 44 -38.68 44 -38 44 C-38 42.02 -38 40.04 -38 38 C-36.68 38 -35.36 38 -34 38 C-34 36.68 -34 35.36 -34 34 C-33.34 34 -32.68 34 -32 34 C-32 33.34 -32 32.68 -32 32 C-31.34 32 -30.68 32 -30 32 C-30 30.68 -30 29.36 -30 28 C-29.34 28 -28.68 28 -28 28 C-28 28.66 -28 29.32 -28 30 C-27.34 30 -26.68 30 -26 30 C-26 29.34 -26 28.68 -26 28 C-24.02 28 -22.04 28 -20 28 C-20 27.34 -20 26.68 -20 26 C-21.32 26 -22.64 26 -24 26 C-24 25.34 -24 24.68 -24 24 C-22.02 24 -20.04 24 -18 24 C-18 23.34 -18 22.68 -18 22 C-17.34 22 -16.68 22 -16 22 C-16 20.02 -16 18.04 -16 16 C-14.68 16 -13.36 16 -12 16 C-12 14.68 -12 13.36 -12 12 C-10.68 12 -9.36 12 -8 12 C-8 11.34 -8 10.68 -8 10 C-7.34 10 -6.68 10 -6 10 C-6 8.68 -6 7.36 -6 6 C-5.34 6 -4.68 6 -4 6 C-4 5.34 -4 4.68 -4 4 C-3.34 4 -2.68 4 -2 4 C-2 3.34 -2 2.68 -2 2 C-1.34 2 -0.68 2 0 2 C0 1.34 0 0.68 0 0 Z " fill="#8A1AAD" transform="translate(48,114)"/>
<path d="M0 0 C0.66 0 1.32 0 2 0 C2 6.6 2 13.2 2 20 C2.66 20 3.32 20 4 20 C4 20.66 4 21.32 4 22 C4.66 22 5.32 22 6 22 C6 23.32 6 24.64 6 26 C7.98 26 9.96 26 12 26 C12 27.32 12 28.64 12 30 C12.66 30 13.32 30 14 30 C14 31.32 14 32.64 14 34 C14.66 34 15.32 34 16 34 C16 35.32 16 36.64 16 38 C16.66 38 17.32 38 18 38 C18 38.66 18 39.32 18 40 C18.66 40 19.32 40 20 40 C20 40.66 20 41.32 20 42 C21.32 42 22.64 42 24 42 C24 42.66 24 43.32 24 44 C24.66 44 25.32 44 26 44 C26 44.66 26 45.32 26 46 C27.32 46 28.64 46 30 46 C30 46.66 30 47.32 30 48 C32.64 48 35.28 48 38 48 C38 48.66 38 49.32 38 50 C39.32 50 40.64 50 42 50 C42 50.66 42 51.32 42 52 C42.66 52 43.32 52 44 52 C44 52.66 44 53.32 44 54 C45.98 54 47.96 54 50 54 C50 57.96 50 61.92 50 66 C42.74 66 35.48 66 28 66 C28 65.34 28 64.68 28 64 C26.68 64 25.36 64 24 64 C24 63.34 24 62.68 24 62 C22.02 62 20.04 62 18 62 C18 60.02 18 58.04 18 56 C17.34 56 16.68 56 16 56 C16 54.68 16 53.36 16 52 C15.34 52 14.68 52 14 52 C14 49.36 14 46.72 14 44 C13.34 44 12.68 44 12 44 C12 43.34 12 42.68 12 42 C11.34 42 10.68 42 10 42 C10 39.36 10 36.72 10 34 C9.34 34 8.68 34 8 34 C8 32.68 8 31.36 8 30 C7.34 30 6.68 30 6 30 C6 29.34 6 28.68 6 28 C5.34 28 4.68 28 4 28 C4 26.68 4 25.36 4 24 C3.34 24 2.68 24 2 24 C2 23.34 2 22.68 2 22 C1.34 22 0.68 22 0 22 C0 14.74 0 7.48 0 0 Z " fill="#E0DFDF" transform="translate(40,188)"/>
<path d="M0 0 C1.32 0 2.64 0 4 0 C4 2.64 4 5.28 4 8 C4.66 8 5.32 8 6 8 C6 8.66 6 9.32 6 10 C6.66 10 7.32 10 8 10 C8 12.64 8 15.28 8 18 C8.66 18 9.32 18 10 18 C10 19.32 10 20.64 10 22 C10.66 22 11.32 22 12 22 C12 23.98 12 25.96 12 28 C13.98 28 15.96 28 18 28 C18 28.66 18 29.32 18 30 C19.32 30 20.64 30 22 30 C22 30.66 22 31.32 22 32 C4.84 32 -12.32 32 -30 32 C-30 31.34 -30 30.68 -30 30 C-29.34 30 -28.68 30 -28 30 C-28 29.34 -28 28.68 -28 28 C-27.34 28 -26.68 28 -26 28 C-26 27.34 -26 26.68 -26 26 C-25.34 26 -24.68 26 -24 26 C-24 26.66 -24 27.32 -24 28 C-23.34 28 -22.68 28 -22 28 C-22 26.68 -22 25.36 -22 24 C-21.34 24 -20.68 24 -20 24 C-20 23.34 -20 22.68 -20 22 C-20.66 22 -21.32 22 -22 22 C-22 21.34 -22 20.68 -22 20 C-20.68 20 -19.36 20 -18 20 C-18 19.34 -18 18.68 -18 18 C-17.34 18 -16.68 18 -16 18 C-16 17.34 -16 16.68 -16 16 C-15.34 16 -14.68 16 -14 16 C-14 15.34 -14 14.68 -14 14 C-13.34 14 -12.68 14 -12 14 C-12 13.34 -12 12.68 -12 12 C-11.34 12 -10.68 12 -10 12 C-10 11.34 -10 10.68 -10 10 C-8.68 10 -7.36 10 -6 10 C-6 9.34 -6 8.68 -6 8 C-5.34 8 -4.68 8 -4 8 C-4 8.66 -4 9.32 -4 10 C-3.34 10 -2.68 10 -2 10 C-2 9.34 -2 8.68 -2 8 C-1.34 8 -0.68 8 0 8 C0 7.34 0 6.68 0 6 C-1.32 6 -2.64 6 -4 6 C-4 5.34 -4 4.68 -4 4 C-3.34 4 -2.68 4 -2 4 C-2 3.34 -2 2.68 -2 2 C-1.34 2 -0.68 2 0 2 C0 1.34 0 0.68 0 0 Z " fill="#B1256D" transform="translate(46,222)"/>
<path d="M0 0 C0.66 0 1.32 0 2 0 C2 15.18 2 30.36 2 46 C-3.28 46 -8.56 46 -14 46 C-14 44.02 -14 42.04 -14 40 C-14.66 40 -15.32 40 -16 40 C-16 36.04 -16 32.08 -16 28 C-17.32 28 -18.64 28 -20 28 C-20 27.34 -20 26.68 -20 26 C-20.66 26 -21.32 26 -22 26 C-22 24.68 -22 23.36 -22 22 C-20.68 22 -19.36 22 -18 22 C-18 20.68 -18 19.36 -18 18 C-17.34 18 -16.68 18 -16 18 C-16 17.34 -16 16.68 -16 16 C-15.34 16 -14.68 16 -14 16 C-14 15.34 -14 14.68 -14 14 C-13.34 14 -12.68 14 -12 14 C-12 13.34 -12 12.68 -12 12 C-11.34 12 -10.68 12 -10 12 C-10 11.34 -10 10.68 -10 10 C-9.34 10 -8.68 10 -8 10 C-8 9.34 -8 8.68 -8 8 C-7.34 8 -6.68 8 -6 8 C-6 7.34 -6 6.68 -6 6 C-5.34 6 -4.68 6 -4 6 C-4 5.34 -4 4.68 -4 4 C-3.34 4 -2.68 4 -2 4 C-2 3.34 -2 2.68 -2 2 C-1.34 2 -0.68 2 0 2 C0 1.34 0 0.68 0 0 Z " fill="#B1246B" transform="translate(252,14)"/>
<path d="M0 0 C3.96 0 7.92 0 12 0 C12 0.66 12 1.32 12 2 C9.36 2 6.72 2 4 2 C4 2.66 4 3.32 4 4 C3.34 4 2.68 4 2 4 C2 5.32 2 6.64 2 8 C4.64 8 7.28 8 10 8 C10 9.98 10 11.96 10 14 C12.64 14 15.28 14 18 14 C18 14.66 18 15.32 18 16 C13.38 16 8.76 16 4 16 C4 17.32 4 18.64 4 20 C8.62 20 13.24 20 18 20 C18 23.3 18 26.6 18 30 C17.34 30 16.68 30 16 30 C16 30.66 16 31.32 16 32 C15.34 32 14.68 32 14 32 C14 32.66 14 33.32 14 34 C8.72 34 3.44 34 -2 34 C-2 33.34 -2 32.68 -2 32 C-2.66 32 -3.32 32 -4 32 C-4 31.34 -4 30.68 -4 30 C-4.66 30 -5.32 30 -6 30 C-6 28.02 -6 26.04 -6 24 C-6.66 24 -7.32 24 -8 24 C-8 18.06 -8 12.12 -8 6 C-6.68 6 -5.36 6 -4 6 C-4 5.34 -4 4.68 -4 4 C-3.34 4 -2.68 4 -2 4 C-2 3.34 -2 2.68 -2 2 C-1.34 2 -0.68 2 0 2 C0 1.34 0 0.68 0 0 Z " fill="#F2EEDE" transform="translate(34,56)"/>
<path d="M0 0 C3.96 0 7.92 0 12 0 C12 0.66 12 1.32 12 2 C12.66 2 13.32 2 14 2 C14 3.32 14 4.64 14 6 C10.7 6 7.4 6 4 6 C4 6.66 4 7.32 4 8 C0.7 8 -2.6 8 -6 8 C-6 8.66 -6 9.32 -6 10 C-7.98 10 -9.96 10 -12 10 C-12 10.66 -12 11.32 -12 12 C-13.32 12 -14.64 12 -16 12 C-16 15.96 -16 19.92 -16 24 C-12.04 24 -8.08 24 -4 24 C-4 24.66 -4 25.32 -4 26 C-2.68 26 -1.36 26 0 26 C0 25.34 0 24.68 0 24 C2.64 24 5.28 24 8 24 C8 23.34 8 22.68 8 22 C11.3 22 14.6 22 18 22 C18 22.66 18 23.32 18 24 C18.66 24 19.32 24 20 24 C20 25.32 20 26.64 20 28 C16.7 28 13.4 28 10 28 C10 28.66 10 29.32 10 30 C0.76 30 -8.48 30 -18 30 C-18 29.34 -18 28.68 -18 28 C-18.66 28 -19.32 28 -20 28 C-20 27.34 -20 26.68 -20 26 C-20.66 26 -21.32 26 -22 26 C-22 20.72 -22 15.44 -22 10 C-21.34 10 -20.68 10 -20 10 C-20 9.34 -20 8.68 -20 8 C-19.34 8 -18.68 8 -18 8 C-18 7.34 -18 6.68 -18 6 C-14.7 6 -11.4 6 -8 6 C-8 5.34 -8 4.68 -8 4 C-6.02 4 -4.04 4 -2 4 C-2 3.34 -2 2.68 -2 2 C-1.34 2 -0.68 2 0 2 C0 1.34 0 0.68 0 0 Z " fill="#191918" transform="translate(192,138)"/>
<path d="M0 0 C3.3 0 6.6 0 10 0 C10 0.66 10 1.32 10 2 C9.34 2 8.68 2 8 2 C8 2.66 8 3.32 8 4 C7.34 4 6.68 4 6 4 C6 4.66 6 5.32 6 6 C5.34 6 4.68 6 4 6 C4 7.32 4 8.64 4 10 C4.66 10 5.32 10 6 10 C6 10.66 6 11.32 6 12 C5.34 12 4.68 12 4 12 C4 12.66 4 13.32 4 14 C3.34 14 2.68 14 2 14 C2 14.66 2 15.32 2 16 C1.34 16 0.68 16 0 16 C0 17.32 0 18.64 0 20 C-0.66 20 -1.32 20 -2 20 C-2 17.36 -2 14.72 -2 12 C-2.66 12 -3.32 12 -4 12 C-4 14.64 -4 17.28 -4 20 C-5.98 20 -7.96 20 -10 20 C-10 20.66 -10 21.32 -10 22 C-10.66 22 -11.32 22 -12 22 C-12 22.66 -12 23.32 -12 24 C-12.66 24 -13.32 24 -14 24 C-14 24.66 -14 25.32 -14 26 C-14.66 26 -15.32 26 -16 26 C-16 27.98 -16 29.96 -16 32 C-16.66 32 -17.32 32 -18 32 C-18 32.66 -18 33.32 -18 34 C-18.66 34 -19.32 34 -20 34 C-20 34.66 -20 35.32 -20 36 C-21.32 36 -22.64 36 -24 36 C-24 35.34 -24 34.68 -24 34 C-25.32 34 -26.64 34 -28 34 C-28 32.68 -28 31.36 -28 30 C-27.34 30 -26.68 30 -26 30 C-26 28.68 -26 27.36 -26 26 C-26.66 26 -27.32 26 -28 26 C-28 25.34 -28 24.68 -28 24 C-27.34 24 -26.68 24 -26 24 C-26 23.34 -26 22.68 -26 22 C-27.98 22 -29.96 22 -32 22 C-32 21.34 -32 20.68 -32 20 C-30.68 20 -29.36 20 -28 20 C-28 19.34 -28 18.68 -28 18 C-27.34 18 -26.68 18 -26 18 C-26 17.34 -26 16.68 -26 16 C-25.34 16 -24.68 16 -24 16 C-24 17.32 -24 18.64 -24 20 C-22.68 20 -21.36 20 -20 20 C-20 19.34 -20 18.68 -20 18 C-19.34 18 -18.68 18 -18 18 C-18 18.66 -18 19.32 -18 20 C-17.34 20 -16.68 20 -16 20 C-16 18.68 -16 17.36 -16 16 C-16.66 16 -17.32 16 -18 16 C-18 15.34 -18 14.68 -18 14 C-17.34 14 -16.68 14 -16 14 C-16 13.34 -16 12.68 -16 12 C-15.34 12 -14.68 12 -14 12 C-14 12.66 -14 13.32 -14 14 C-13.34 14 -12.68 14 -12 14 C-12 13.34 -12 12.68 -12 12 C-11.34 12 -10.68 12 -10 12 C-10 10.02 -10 8.04 -10 6 C-8.68 6 -7.36 6 -6 6 C-6 5.34 -6 4.68 -6 4 C-7.32 4 -8.64 4 -10 4 C-10 3.34 -10 2.68 -10 2 C-7.36 2 -4.72 2 -2 2 C-2 2.66 -2 3.32 -2 4 C-1.34 4 -0.68 4 0 4 C0 2.68 0 1.36 0 0 Z " fill="#7214D9" transform="translate(82,0)"/>
<path d="M0 0 C7.92 0 15.84 0 24 0 C24 1.98 24 3.96 24 6 C25.32 6 26.64 6 28 6 C28 9.3 28 12.6 28 16 C25.36 16 22.72 16 20 16 C20 16.66 20 17.32 20 18 C18.68 18 17.36 18 16 18 C16 19.98 16 21.96 16 24 C14.02 24 12.04 24 10 24 C10 23.34 10 22.68 10 22 C9.34 22 8.68 22 8 22 C8 21.34 8 20.68 8 20 C7.34 20 6.68 20 6 20 C6 19.34 6 18.68 6 18 C5.34 18 4.68 18 4 18 C4 16.02 4 14.04 4 12 C2.68 12 1.36 12 0 12 C0 8.04 0 4.08 0 0 Z " fill="#D8D8D6" transform="translate(160,192)"/>
<path d="M0 0 C3.3 0 6.6 0 10 0 C10 0.66 10 1.32 10 2 C11.32 2 12.64 2 14 2 C14 2.66 14 3.32 14 4 C12.68 4 11.36 4 10 4 C10 5.32 10 6.64 10 8 C7.5 9.75 7.5 9.75 5 11 C5.33 11.99 5.66 12.98 6 14 C5.01 14.33 4.02 14.66 3 15 C2.67 15.99 2.34 16.98 2 18 C0.35 17.67 -1.3 17.34 -3 17 C-3.33 18.65 -3.66 20.3 -4 22 C-5.98 22 -7.96 22 -10 22 C-10 22.66 -10 23.32 -10 24 C-11.32 24 -12.64 24 -14 24 C-14 23.34 -14 22.68 -14 22 C-14.66 22 -15.32 22 -16 22 C-16 21.34 -16 20.68 -16 20 C-19.3 20 -22.6 20 -26 20 C-26 19.34 -26 18.68 -26 18 C-24.68 18 -23.36 18 -22 18 C-22 17.34 -22 16.68 -22 16 C-21.34 16 -20.68 16 -20 16 C-20 16.66 -20 17.32 -20 18 C-19.34 18 -18.68 18 -18 18 C-18 17.34 -18 16.68 -18 16 C-17.34 16 -16.68 16 -16 16 C-16 15.34 -16 14.68 -16 14 C-15.34 14 -14.68 14 -14 14 C-14 13.34 -14 12.68 -14 12 C-12.68 12 -11.36 12 -10 12 C-10 11.34 -10 10.68 -10 10 C-11.98 10 -13.96 10 -16 10 C-16 9.34 -16 8.68 -16 8 C-15.34 8 -14.68 8 -14 8 C-14 6.68 -14 5.36 -14 4 C-12.68 4 -11.36 4 -10 4 C-10 3.34 -10 2.68 -10 2 C-9.34 2 -8.68 2 -8 2 C-8 3.98 -8 5.96 -8 8 C-7.34 8 -6.68 8 -6 8 C-6 6.02 -6 4.04 -6 2 C-4.02 2 -2.04 2 0 2 C0 1.34 0 0.68 0 0 Z " fill="#971D98" transform="translate(202,0)"/>
<path d="M0 0 C5.28 0 10.56 0 16 0 C16 0.66 16 1.32 16 2 C18.64 2 21.28 2 24 2 C24 2.66 24 3.32 24 4 C24.66 4 25.32 4 26 4 C26 4.66 26 5.32 26 6 C26.66 6 27.32 6 28 6 C28 6.66 28 7.32 28 8 C28.66 8 29.32 8 30 8 C30 9.32 30 10.64 30 12 C30.66 12 31.32 12 32 12 C32 11.34 32 10.68 32 10 C39.92 10 47.84 10 56 10 C56 10.66 56 11.32 56 12 C56.66 12 57.32 12 58 12 C58 12.66 58 13.32 58 14 C59.32 14 60.64 14 62 14 C62 13.34 62 12.68 62 12 C63.98 12 65.96 12 68 12 C68 11.34 68 10.68 68 10 C69.98 10 71.96 10 74 10 C74 11.98 74 13.96 74 16 C74.66 16 75.32 16 76 16 C76 16.66 76 17.32 76 18 C78.64 18 81.28 18 84 18 C84 18.66 84 19.32 84 20 C84.66 20 85.32 20 86 20 C86 20.66 86 21.32 86 22 C89.3 22 92.6 22 96 22 C96 22.66 96 23.32 96 24 C92.04 24 88.08 24 84 24 C84 23.34 84 22.68 84 22 C80.7 22 77.4 22 74 22 C74 20.68 74 19.36 74 18 C73.34 18 72.68 18 72 18 C72 16.02 72 14.04 72 12 C71.34 12 70.68 12 70 12 C70 12.66 70 13.32 70 14 C68.02 14 66.04 14 64 14 C64 14.66 64 15.32 64 16 C61.36 16 58.72 16 56 16 C56 15.34 56 14.68 56 14 C55.34 14 54.68 14 54 14 C54 13.34 54 12.68 54 12 C47.4 12 40.8 12 34 12 C34 12.66 34 13.32 34 14 C32.02 14 30.04 14 28 14 C28 12.68 28 11.36 28 10 C27.34 10 26.68 10 26 10 C26 9.34 26 8.68 26 8 C25.34 8 24.68 8 24 8 C24 7.34 24 6.68 24 6 C23.34 6 22.68 6 22 6 C22 5.34 22 4.68 22 4 C19.36 4 16.72 4 14 4 C14 3.34 14 2.68 14 2 C10.04 2 6.08 2 2 2 C2 2.66 2 3.32 2 4 C1.34 4 0.68 4 0 4 C0 4.66 0 5.32 0 6 C-2.64 6 -5.28 6 -8 6 C-8 5.34 -8 4.68 -8 4 C-6.02 4 -4.04 4 -2 4 C-2 3.34 -2 2.68 -2 2 C-1.34 2 -0.68 2 0 2 C0 1.34 0 0.68 0 0 Z " fill="#C078B0" transform="translate(130,10)"/>
<path d="M0 0 C3.3 0 6.6 0 10 0 C10 0.66 10 1.32 10 2 C8.02 2 6.04 2 4 2 C4 3.98 4 5.96 4 8 C4.66 8 5.32 8 6 8 C6 11.3 6 14.6 6 18 C4.68 18 3.36 18 2 18 C2 17.34 2 16.68 2 16 C-1.96 16 -5.92 16 -10 16 C-10 12.04 -10 8.08 -10 4 C-8.68 4 -7.36 4 -6 4 C-6 3.34 -6 2.68 -6 2 C-4.02 2 -2.04 2 0 2 C0 1.34 0 0.68 0 0 Z " fill="#D4D4D3" transform="translate(186,146)"/>
<path d="M0 0 C6.6 0 13.2 0 20 0 C20 0.66 20 1.32 20 2 C20.66 2 21.32 2 22 2 C22 2.66 22 3.32 22 4 C21.34 4 20.68 4 20 4 C20 4.66 20 5.32 20 6 C18.68 6 17.36 6 16 6 C16 5.34 16 4.68 16 4 C12.7 4 9.4 4 6 4 C6 5.32 6 6.64 6 8 C6.66 8 7.32 8 8 8 C8 9.98 8 11.96 8 14 C8.66 14 9.32 14 10 14 C10 14.66 10 15.32 10 16 C10.66 16 11.32 16 12 16 C12 16.66 12 17.32 12 18 C12.66 18 13.32 18 14 18 C14 18.66 14 19.32 14 20 C14.66 20 15.32 20 16 20 C16 21.32 16 22.64 16 24 C14.02 24 12.04 24 10 24 C10 23.34 10 22.68 10 22 C9.34 22 8.68 22 8 22 C8 21.34 8 20.68 8 20 C7.34 20 6.68 20 6 20 C6 19.34 6 18.68 6 18 C5.34 18 4.68 18 4 18 C4 16.02 4 14.04 4 12 C2.68 12 1.36 12 0 12 C0 8.04 0 4.08 0 0 Z " fill="#151515" transform="translate(160,192)"/>
<path d="M0 0 C0.66 0 1.32 0 2 0 C2 0.66 2 1.32 2 2 C2.66 2 3.32 2 4 2 C4 2.66 4 3.32 4 4 C3.34 4 2.68 4 2 4 C2 9.94 2 15.88 2 22 C1.34 22 0.68 22 0 22 C0 21.34 0 20.68 0 20 C-0.66 20 -1.32 20 -2 20 C-2 21.32 -2 22.64 -2 24 C-1.34 24 -0.68 24 0 24 C0 24.66 0 25.32 0 26 C-0.66 26 -1.32 26 -2 26 C-2 26.66 -2 27.32 -2 28 C-2.66 28 -3.32 28 -4 28 C-4 27.34 -4 26.68 -4 26 C-4.66 26 -5.32 26 -6 26 C-6 26.66 -6 27.32 -6 28 C-6.66 28 -7.32 28 -8 28 C-8 27.34 -8 26.68 -8 26 C-9.32 26 -10.64 26 -12 26 C-12 25.34 -12 24.68 -12 24 C-11.34 24 -10.68 24 -10 24 C-10 22.68 -10 21.36 -10 20 C-10.66 20 -11.32 20 -12 20 C-12 19.34 -12 18.68 -12 18 C-10.68 18 -9.36 18 -8 18 C-8 17.34 -8 16.68 -8 16 C-7.34 16 -6.68 16 -6 16 C-6 14.68 -6 13.36 -6 12 C-5.34 12 -4.68 12 -4 12 C-4 11.34 -4 10.68 -4 10 C-3.34 10 -2.68 10 -2 10 C-2 8.68 -2 7.36 -2 6 C-2.66 6 -3.32 6 -4 6 C-4 4.68 -4 3.36 -4 2 C-2.68 2 -1.36 2 0 2 C0 1.34 0 0.68 0 0 Z " fill="#7215D9" transform="translate(18,56)"/>
<path d="M0 0 C1.32 0 2.64 0 4 0 C4 6.6 4 13.2 4 20 C5.32 20 6.64 20 8 20 C8 21.98 8 23.96 8 26 C8.66 26 9.32 26 10 26 C10 26.66 10 27.32 10 28 C10.66 28 11.32 28 12 28 C12 28.66 12 29.32 12 30 C17.28 30 22.56 30 28 30 C28 30.66 28 31.32 28 32 C22.06 32 16.12 32 10 32 C10 32.66 10 33.32 10 34 C9.34 34 8.68 34 8 34 C8 33.34 8 32.68 8 32 C7.34 32 6.68 32 6 32 C6 31.34 6 30.68 6 30 C5.34 30 4.68 30 4 30 C4 29.34 4 28.68 4 28 C3.34 28 2.68 28 2 28 C2 26.02 2 24.04 2 22 C1.34 22 0.68 22 0 22 C0 14.74 0 7.48 0 0 Z " fill="#171219" transform="translate(20,60)"/>
<path d="M0 0 C5.28 0 10.56 0 16 0 C16 0.66 16 1.32 16 2 C14.02 2 12.04 2 10 2 C10 5.96 10 9.92 10 14 C9.34 14 8.68 14 8 14 C8 15.32 8 16.64 8 18 C6.02 18 4.04 18 2 18 C2 17.34 2 16.68 2 16 C1.34 16 0.68 16 0 16 C0 15.34 0 14.68 0 14 C-0.66 14 -1.32 14 -2 14 C-2 12.02 -2 10.04 -2 8 C-1.34 8 -0.68 8 0 8 C0 5.36 0 2.72 0 0 Z " fill="#D5D4D3" transform="translate(26,168)"/>
<path d="M0 0 C0.66 0 1.32 0 2 0 C2 6.6 2 13.2 2 20 C2.66 20 3.32 20 4 20 C4 20.66 4 21.32 4 22 C4.66 22 5.32 22 6 22 C6 23.32 6 24.64 6 26 C6.66 26 7.32 26 8 26 C8 26.66 8 27.32 8 28 C8.66 28 9.32 28 10 28 C10 29.32 10 30.64 10 32 C10.66 32 11.32 32 12 32 C12 34.64 12 37.28 12 40 C12.66 40 13.32 40 14 40 C14 40.66 14 41.32 14 42 C14.66 42 15.32 42 16 42 C16 44.64 16 47.28 16 50 C16.66 50 17.32 50 18 50 C18 51.32 18 52.64 18 54 C18.66 54 19.32 54 20 54 C20 55.98 20 57.96 20 60 C20.66 60 21.32 60 22 60 C22 60.66 22 61.32 22 62 C20.68 62 19.36 62 18 62 C18 60.02 18 58.04 18 56 C17.34 56 16.68 56 16 56 C16 54.68 16 53.36 16 52 C15.34 52 14.68 52 14 52 C14 49.36 14 46.72 14 44 C13.34 44 12.68 44 12 44 C12 43.34 12 42.68 12 42 C11.34 42 10.68 42 10 42 C10 39.36 10 36.72 10 34 C9.34 34 8.68 34 8 34 C8 32.68 8 31.36 8 30 C7.34 30 6.68 30 6 30 C6 29.34 6 28.68 6 28 C5.34 28 4.68 28 4 28 C4 26.68 4 25.36 4 24 C3.34 24 2.68 24 2 24 C2 23.34 2 22.68 2 22 C1.34 22 0.68 22 0 22 C0 14.74 0 7.48 0 0 Z " fill="#BE69A5" transform="translate(40,188)"/>
<path d="M0 0 C3.3 0 6.6 0 10 0 C10 0.66 10 1.32 10 2 C10.66 2 11.32 2 12 2 C12 3.32 12 4.64 12 6 C8.7 6 5.4 6 2 6 C2 6.66 2 7.32 2 8 C-7.24 8 -16.48 8 -26 8 C-26 7.34 -26 6.68 -26 6 C-21.38 6 -16.76 6 -12 6 C-12 5.34 -12 4.68 -12 4 C-10.68 4 -9.36 4 -8 4 C-8 3.34 -8 2.68 -8 2 C-5.36 2 -2.72 2 0 2 C0 1.34 0 0.68 0 0 Z " fill="#191817" transform="translate(200,160)"/>
<path d="M0 0 C3.96 0 7.92 0 12 0 C12 4.62 12 9.24 12 14 C10.02 14 8.04 14 6 14 C6 13.34 6 12.68 6 12 C4.02 12 2.04 12 0 12 C0 8.04 0 4.08 0 0 Z " fill="#F2EEDE" transform="translate(42,40)"/>
<path d="M0 0 C1.32 0 2.64 0 4 0 C4 0.66 4 1.32 4 2 C6.64 2 9.28 2 12 2 C12 2.66 12 3.32 12 4 C15.3 4 18.6 4 22 4 C22 3.34 22 2.68 22 2 C23.98 2 25.96 2 28 2 C28 3.32 28 4.64 28 6 C27.34 6 26.68 6 26 6 C26 6.66 26 7.32 26 8 C18.74 8 11.48 8 4 8 C4 7.34 4 6.68 4 6 C2.68 6 1.36 6 0 6 C0 4.02 0 2.04 0 0 Z " fill="#1A1A19" transform="translate(144,114)"/>
<path d="M0 0 C3.3 0 6.6 0 10 0 C10 1.32 10 2.64 10 4 C9.34 4 8.68 4 8 4 C8 4.66 8 5.32 8 6 C7.34 6 6.68 6 6 6 C6 6.66 6 7.32 6 8 C5.34 8 4.68 8 4 8 C4 9.32 4 10.64 4 12 C3.34 12 2.68 12 2 12 C2 12.66 2 13.32 2 14 C0.02 14 -1.96 14 -4 14 C-4 10.7 -4 7.4 -4 4 C-3.34 4 -2.68 4 -2 4 C-2 3.34 -2 2.68 -2 2 C-1.34 2 -0.68 2 0 2 C0 1.34 0 0.68 0 0 Z " fill="#151514" transform="translate(160,96)"/>
<path d="M0 0 C3.96 0 7.92 0 12 0 C12 0.66 12 1.32 12 2 C12.66 2 13.32 2 14 2 C14 3.32 14 4.64 14 6 C10.7 6 7.4 6 4 6 C4 6.66 4 7.32 4 8 C0.7 8 -2.6 8 -6 8 C-6 7.34 -6 6.68 -6 6 C-6.66 6 -7.32 6 -8 6 C-8 5.34 -8 4.68 -8 4 C-6.02 4 -4.04 4 -2 4 C-2 3.34 -2 2.68 -2 2 C-1.34 2 -0.68 2 0 2 C0 1.34 0 0.68 0 0 Z " fill="#212120" transform="translate(192,138)"/>
<path d="M0 0 C5.28 0 10.56 0 16 0 C16 0.66 16 1.32 16 2 C18.64 2 21.28 2 24 2 C24 2.66 24 3.32 24 4 C24.66 4 25.32 4 26 4 C26 4.66 26 5.32 26 6 C26.66 6 27.32 6 28 6 C28 6.66 28 7.32 28 8 C28.66 8 29.32 8 30 8 C30 9.32 30 10.64 30 12 C31.32 12 32.64 12 34 12 C34 12.66 34 13.32 34 14 C32.02 14 30.04 14 28 14 C28 12.68 28 11.36 28 10 C27.34 10 26.68 10 26 10 C26 9.34 26 8.68 26 8 C25.34 8 24.68 8 24 8 C24 7.34 24 6.68 24 6 C23.34 6 22.68 6 22 6 C22 5.34 22 4.68 22 4 C19.36 4 16.72 4 14 4 C14 3.34 14 2.68 14 2 C10.04 2 6.08 2 2 2 C2 2.66 2 3.32 2 4 C1.34 4 0.68 4 0 4 C0 4.66 0 5.32 0 6 C-2.64 6 -5.28 6 -8 6 C-8 5.34 -8 4.68 -8 4 C-6.02 4 -4.04 4 -2 4 C-2 3.34 -2 2.68 -2 2 C-1.34 2 -0.68 2 0 2 C0 1.34 0 0.68 0 0 Z " fill="#CDA4C9" transform="translate(130,10)"/>
<path d="M0 0 C0.66 0 1.32 0 2 0 C2 4.62 2 9.24 2 14 C2.66 14 3.32 14 4 14 C4 15.98 4 17.96 4 20 C3.34 20 2.68 20 2 20 C2 19.34 2 18.68 2 18 C0.68 18 -0.64 18 -2 18 C-2 17.34 -2 16.68 -2 16 C-2.66 16 -3.32 16 -4 16 C-4 12.04 -4 8.08 -4 4 C-2.68 4 -1.36 4 0 4 C0 2.68 0 1.36 0 0 Z " fill="#130A14" transform="translate(22,168)"/>
<path d="M0 0 C1.32 0 2.64 0 4 0 C4 0.66 4 1.32 4 2 C3.34 2 2.68 2 2 2 C2 2.66 2 3.32 2 4 C1.34 4 0.68 4 0 4 C0 5.32 0 6.64 0 8 C-0.66 8 -1.32 8 -2 8 C-2 13.28 -2 18.56 -2 24 C-1.34 24 -0.68 24 0 24 C0 27.3 0 30.6 0 34 C-1.32 34 -2.64 34 -4 34 C-4 34.66 -4 35.32 -4 36 C-4.66 36 -5.32 36 -6 36 C-6 34.68 -6 33.36 -6 32 C-4.68 32 -3.36 32 -2 32 C-2 30.02 -2 28.04 -2 26 C-2.66 26 -3.32 26 -4 26 C-4 19.4 -4 12.8 -4 6 C-3.34 6 -2.68 6 -2 6 C-2 4.68 -2 3.36 -2 2 C-1.34 2 -0.68 2 0 2 C0 1.34 0 0.68 0 0 Z " fill="#AC67CA" transform="translate(114,16)"/>
<path d="M0 0 C1.32 0 2.64 0 4 0 C4 0.66 4 1.32 4 2 C3.34 2 2.68 2 2 2 C2 3.98 2 5.96 2 8 C0.68 8 -0.64 8 -2 8 C-2 8.66 -2 9.32 -2 10 C-3.32 10 -4.64 10 -6 10 C-6 11.98 -6 13.96 -6 16 C-6.66 16 -7.32 16 -8 16 C-8 17.98 -8 19.96 -8 22 C-7.34 22 -6.68 22 -6 22 C-6 22.66 -6 23.32 -6 24 C-7.32 24 -8.64 24 -10 24 C-10 25.98 -10 27.96 -10 30 C-10.66 30 -11.32 30 -12 30 C-12 27.36 -12 24.72 -12 22 C-11.34 22 -10.68 22 -10 22 C-10 19.36 -10 16.72 -10 14 C-9.34 14 -8.68 14 -8 14 C-8 12.02 -8 10.04 -8 8 C-6.68 8 -5.36 8 -4 8 C-4 7.34 -4 6.68 -4 6 C-2.68 6 -1.36 6 0 6 C0 4.02 0 2.04 0 0 Z " fill="#D4B1CC" transform="translate(84,68)"/>
<path d="M0 0 C1.32 0 2.64 0 4 0 C4 0.66 4 1.32 4 2 C5.32 2 6.64 2 8 2 C8 5.96 8 9.92 8 14 C8.66 14 9.32 14 10 14 C10 15.98 10 17.96 10 20 C15.28 20 20.56 20 26 20 C26 20.66 26 21.32 26 22 C20.06 22 14.12 22 8 22 C8 20.02 8 18.04 8 16 C7.34 16 6.68 16 6 16 C6 12.04 6 8.08 6 4 C4.68 4 3.36 4 2 4 C2 3.34 2 2.68 2 2 C1.34 2 0.68 2 0 2 C0 1.34 0 0.68 0 0 Z " fill="#BB3B7A" transform="translate(228,40)"/>
<path d="M0 0 C2.64 0 5.28 0 8 0 C8 2.64 8 5.28 8 8 C7.34 8 6.68 8 6 8 C6 9.32 6 10.64 6 12 C4.68 12 3.36 12 2 12 C2 11.34 2 10.68 2 10 C1.34 10 0.68 10 0 10 C0 6.7 0 3.4 0 0 Z " fill="#2E2E2C" transform="translate(200,92)"/>
<path d="M0 0 C0.66 0 1.32 0 2 0 C2 1.98 2 3.96 2 6 C3.32 6 4.64 6 6 6 C6 6.66 6 7.32 6 8 C5.34 8 4.68 8 4 8 C4 8.66 4 9.32 4 10 C2.68 10 1.36 10 0 10 C0 15.94 0 21.88 0 28 C-0.66 28 -1.32 28 -2 28 C-2 21.4 -2 14.8 -2 8 C-2.66 8 -3.32 8 -4 8 C-4 7.34 -4 6.68 -4 6 C-3.34 6 -2.68 6 -2 6 C-2 5.34 -2 4.68 -2 4 C-1.34 4 -0.68 4 0 4 C0 2.68 0 1.36 0 0 Z " fill="#343033" transform="translate(26,52)"/>
<path d="M0 0 C5.94 0 11.88 0 18 0 C18 1.98 18 3.96 18 6 C16.02 6 14.04 6 12 6 C12 5.34 12 4.68 12 4 C9.36 4 6.72 4 4 4 C4 3.34 4 2.68 4 2 C2.68 2 1.36 2 0 2 C0 1.34 0 0.68 0 0 Z " fill="#1A1916" transform="translate(30,164)"/>
<path d="M0 0 C2.64 0 5.28 0 8 0 C8 2.64 8 5.28 8 8 C4.7 8 1.4 8 -2 8 C-2 6.02 -2 4.04 -2 2 C-1.34 2 -0.68 2 0 2 C0 1.34 0 0.68 0 0 Z " fill="#0D0D0D" transform="translate(142,76)"/>
<path d="M0 0 C0.66 0 1.32 0 2 0 C2 1.98 2 3.96 2 6 C0.68 6 -0.64 6 -2 6 C-2 7.32 -2 8.64 -2 10 C-3.32 10 -4.64 10 -6 10 C-6 10.66 -6 11.32 -6 12 C-7.98 12 -9.96 12 -12 12 C-12 13.98 -12 15.96 -12 18 C-12.66 18 -13.32 18 -14 18 C-14 18.66 -14 19.32 -14 20 C-14.66 20 -15.32 20 -16 20 C-16 18.68 -16 17.36 -16 16 C-15.34 16 -14.68 16 -14 16 C-14 14.02 -14 12.04 -14 10 C-12.02 10 -10.04 10 -8 10 C-8 9.34 -8 8.68 -8 8 C-6.68 8 -5.36 8 -4 8 C-4 6.68 -4 5.36 -4 4 C-2.68 4 -1.36 4 0 4 C0 2.68 0 1.36 0 0 Z " fill="#E05C56" transform="translate(240,214)"/>
<path d="M0 0 C3.96 0 7.92 0 12 0 C12 1.32 12 2.64 12 4 C11.34 4 10.68 4 10 4 C10 4.66 10 5.32 10 6 C6.7 6 3.4 6 0 6 C0 4.02 0 2.04 0 0 Z " fill="#1F1C1D" transform="translate(34,182)"/>
<path d="M0 0 C1.32 0 2.64 0 4 0 C4 0.66 4 1.32 4 2 C3.34 2 2.68 2 2 2 C2 2.66 2 3.32 2 4 C1.34 4 0.68 4 0 4 C0 4.66 0 5.32 0 6 C-0.66 6 -1.32 6 -2 6 C-2 6.66 -2 7.32 -2 8 C-2.66 8 -3.32 8 -4 8 C-4 8.66 -4 9.32 -4 10 C-4.66 10 -5.32 10 -6 10 C-6 10.66 -6 11.32 -6 12 C-6.66 12 -7.32 12 -8 12 C-8 12.66 -8 13.32 -8 14 C-9.98 14 -11.96 14 -14 14 C-14 14.66 -14 15.32 -14 16 C-14.66 16 -15.32 16 -16 16 C-16 14.68 -16 13.36 -16 12 C-14.02 12 -12.04 12 -10 12 C-10 11.34 -10 10.68 -10 10 C-9.34 10 -8.68 10 -8 10 C-8 9.34 -8 8.68 -8 8 C-7.34 8 -6.68 8 -6 8 C-6 7.34 -6 6.68 -6 6 C-5.34 6 -4.68 6 -4 6 C-4 5.34 -4 4.68 -4 4 C-3.34 4 -2.68 4 -2 4 C-2 3.34 -2 2.68 -2 2 C-1.34 2 -0.68 2 0 2 C0 1.34 0 0.68 0 0 Z " fill="#C99CCA" transform="translate(104,52)"/>
<path d="M0 0 C1.32 0 2.64 0 4 0 C4 0.66 4 1.32 4 2 C7.3 2 10.6 2 14 2 C14 2.66 14 3.32 14 4 C4.76 4 -4.48 4 -14 4 C-14 3.34 -14 2.68 -14 2 C-9.38 2 -4.76 2 0 2 C0 1.34 0 0.68 0 0 Z " fill="#63615C" transform="translate(188,164)"/>
<path d="M0 0 C0.66 0 1.32 0 2 0 C2 1.32 2 2.64 2 4 C1.34 4 0.68 4 0 4 C0 5.32 0 6.64 0 8 C-0.66 8 -1.32 8 -2 8 C-2 9.98 -2 11.96 -2 14 C-2.66 14 -3.32 14 -4 14 C-4 15.32 -4 16.64 -4 18 C-4.66 18 -5.32 18 -6 18 C-6 18.66 -6 19.32 -6 20 C-6.66 20 -7.32 20 -8 20 C-8 18.68 -8 17.36 -8 16 C-7.34 16 -6.68 16 -6 16 C-6 14.68 -6 13.36 -6 12 C-5.34 12 -4.68 12 -4 12 C-4 10.02 -4 8.04 -4 6 C-3.34 6 -2.68 6 -2 6 C-2 4.68 -2 3.36 -2 2 C-1.34 2 -0.68 2 0 2 C0 1.34 0 0.68 0 0 Z " fill="#C68EBE" transform="translate(58,120)"/>
<path d="M0 0 C0.66 0 1.32 0 2 0 C2 1.98 2 3.96 2 6 C7.94 6 13.88 6 20 6 C20 7.32 20 8.64 20 10 C19.34 10 18.68 10 18 10 C18 9.34 18 8.68 18 8 C12.06 8 6.12 8 0 8 C0 5.36 0 2.72 0 0 Z " fill="#DFB9BA" transform="translate(234,56)"/>
<path d="M0 0 C1.32 0 2.64 0 4 0 C4 0.66 4 1.32 4 2 C4.66 2 5.32 2 6 2 C6 3.32 6 4.64 6 6 C6.66 6 7.32 6 8 6 C8 7.32 8 8.64 8 10 C8.66 10 9.32 10 10 10 C10 10.66 10 11.32 10 12 C10.66 12 11.32 12 12 12 C12 13.32 12 14.64 12 16 C11.34 16 10.68 16 10 16 C10 15.34 10 14.68 10 14 C9.34 14 8.68 14 8 14 C8 13.34 8 12.68 8 12 C7.34 12 6.68 12 6 12 C6 11.34 6 10.68 6 10 C5.34 10 4.68 10 4 10 C4 8.02 4 6.04 4 4 C3.34 4 2.68 4 2 4 C2 3.34 2 2.68 2 2 C1.34 2 0.68 2 0 2 C0 1.34 0 0.68 0 0 Z " fill="#F1ECD5" transform="translate(206,44)"/>
<path d="M0 0 C7.92 0 15.84 0 24 0 C24 0.66 24 1.32 24 2 C24.66 2 25.32 2 26 2 C26 2.66 26 3.32 26 4 C24.68 4 23.36 4 22 4 C22 3.34 22 2.68 22 2 C14.74 2 7.48 2 0 2 C0 1.34 0 0.68 0 0 Z " fill="#B460AF" transform="translate(162,20)"/>
<path d="M0 0 C5.28 0 10.56 0 16 0 C16 0.66 16 1.32 16 2 C11.38 2 6.76 2 2 2 C2 2.66 2 3.32 2 4 C1.34 4 0.68 4 0 4 C0 4.66 0 5.32 0 6 C-2.64 6 -5.28 6 -8 6 C-8 5.34 -8 4.68 -8 4 C-6.02 4 -4.04 4 -2 4 C-2 3.34 -2 2.68 -2 2 C-1.34 2 -0.68 2 0 2 C0 1.34 0 0.68 0 0 Z " fill="#BA85D3" transform="translate(130,10)"/>
<path d="M0 0 C0.66 0 1.32 0 2 0 C2 0.66 2 1.32 2 2 C3.32 2 4.64 2 6 2 C6 4.64 6 7.28 6 10 C4.68 10 3.36 10 2 10 C2 9.34 2 8.68 2 8 C0.68 8 -0.64 8 -2 8 C-2 7.34 -2 6.68 -2 6 C-1.34 6 -0.68 6 0 6 C0 4.02 0 2.04 0 0 Z " fill="#F4EED3" transform="translate(92,236)"/>
<path d="M0 0 C0.66 0 1.32 0 2 0 C2 6.6 2 13.2 2 20 C2.66 20 3.32 20 4 20 C4 21.32 4 22.64 4 24 C3.34 24 2.68 24 2 24 C2 23.34 2 22.68 2 22 C1.34 22 0.68 22 0 22 C0 14.74 0 7.48 0 0 Z " fill="#BD6BA9" transform="translate(40,188)"/>
<path d="M0 0 C0.66 0 1.32 0 2 0 C2 1.32 2 2.64 2 4 C1.34 4 0.68 4 0 4 C0 4.66 0 5.32 0 6 C-0.66 6 -1.32 6 -2 6 C-2 6.66 -2 7.32 -2 8 C-2.66 8 -3.32 8 -4 8 C-4 8.66 -4 9.32 -4 10 C-4.66 10 -5.32 10 -6 10 C-6 10.66 -6 11.32 -6 12 C-6.66 12 -7.32 12 -8 12 C-8 12.66 -8 13.32 -8 14 C-8.66 14 -9.32 14 -10 14 C-10 12.68 -10 11.36 -10 10 C-9.34 10 -8.68 10 -8 10 C-8 9.34 -8 8.68 -8 8 C-7.34 8 -6.68 8 -6 8 C-6 7.34 -6 6.68 -6 6 C-5.34 6 -4.68 6 -4 6 C-4 5.34 -4 4.68 -4 4 C-3.34 4 -2.68 4 -2 4 C-2 3.34 -2 2.68 -2 2 C-1.34 2 -0.68 2 0 2 C0 1.34 0 0.68 0 0 Z " fill="#F5EFD4" transform="translate(206,216)"/>
<path d="M0 0 C2.64 0 5.28 0 8 0 C8 1.32 8 2.64 8 4 C8.66 4 9.32 4 10 4 C10 4.66 10 5.32 10 6 C10.66 6 11.32 6 12 6 C12 6.66 12 7.32 12 8 C12.66 8 13.32 8 14 8 C14 8.66 14 9.32 14 10 C12.02 10 10.04 10 8 10 C8 8.68 8 7.36 8 6 C7.34 6 6.68 6 6 6 C6 4.68 6 3.36 6 2 C4.02 2 2.04 2 0 2 C0 1.34 0 0.68 0 0 Z " fill="#F2EDD5" transform="translate(46,212)"/>
<path d="M0 0 C0.66 0 1.32 0 2 0 C2 1.98 2 3.96 2 6 C1.34 6 0.68 6 0 6 C0 7.32 0 8.64 0 10 C-0.66 10 -1.32 10 -2 10 C-2 12.64 -2 15.28 -2 18 C-3.32 18 -4.64 18 -6 18 C-6 17.34 -6 16.68 -6 16 C-5.34 16 -4.68 16 -4 16 C-4 13.36 -4 10.72 -4 8 C-3.34 8 -2.68 8 -2 8 C-2 6.68 -2 5.36 -2 4 C-1.34 4 -0.68 4 0 4 C0 2.68 0 1.36 0 0 Z " fill="#BE78B0" transform="translate(46,146)"/>
<path d="M0 0 C5.28 0 10.56 0 16 0 C16 1.32 16 2.64 16 4 C13.36 4 10.72 4 8 4 C8 3.34 8 2.68 8 2 C5.36 2 2.72 2 0 2 C0 1.34 0 0.68 0 0 Z " fill="#706E68" transform="translate(36,62)"/>
<path d="M0 0 C2.64 0 5.28 0 8 0 C8 0.66 8 1.32 8 2 C8.66 2 9.32 2 10 2 C10 2.66 10 3.32 10 4 C13.3 4 16.6 4 20 4 C20 4.66 20 5.32 20 6 C16.04 6 12.08 6 8 6 C8 5.34 8 4.68 8 4 C7.34 4 6.68 4 6 4 C6 3.34 6 2.68 6 2 C4.02 2 2.04 2 0 2 C0 1.34 0 0.68 0 0 Z " fill="#BD6BA8" transform="translate(206,28)"/>
<path d="M0 0 C0.66 0 1.32 0 2 0 C2 1.32 2 2.64 2 4 C2.66 4 3.32 4 4 4 C4 4.66 4 5.32 4 6 C4.66 6 5.32 6 6 6 C6 7.32 6 8.64 6 10 C6.66 10 7.32 10 8 10 C8 11.98 8 13.96 8 16 C7.34 16 6.68 16 6 16 C6 14.68 6 13.36 6 12 C5.34 12 4.68 12 4 12 C4 10.68 4 9.36 4 8 C3.34 8 2.68 8 2 8 C2 7.34 2 6.68 2 6 C1.34 6 0.68 6 0 6 C0 4.02 0 2.04 0 0 Z " fill="#CD9EBE" transform="translate(44,210)"/>
<path d="M0 0 C0.66 0 1.32 0 2 0 C2 1.32 2 2.64 2 4 C-4.6 4 -11.2 4 -18 4 C-18 3.34 -18 2.68 -18 2 C-12.06 2 -6.12 2 0 2 C0 1.34 0 0.68 0 0 Z " fill="#98968D" transform="translate(170,120)"/>
<path d="M0 0 C1.32 0 2.64 0 4 0 C4 0.66 4 1.32 4 2 C5.32 2 6.64 2 8 2 C8 6.62 8 11.24 8 16 C7.34 16 6.68 16 6 16 C6 12.04 6 8.08 6 4 C4.68 4 3.36 4 2 4 C2 3.34 2 2.68 2 2 C1.34 2 0.68 2 0 2 C0 1.34 0 0.68 0 0 Z " fill="#BB5798" transform="translate(228,40)"/>
<path d="M0 0 C0.66 0 1.32 0 2 0 C2 4.62 2 9.24 2 14 C-1.3 14 -4.6 14 -8 14 C-8 13.34 -8 12.68 -8 12 C-5.36 12 -2.72 12 0 12 C0 8.04 0 4.08 0 0 Z " fill="#420983" transform="translate(36,38)"/>
<path d="M0 0 C2.64 0 5.28 0 8 0 C8 0.66 8 1.32 8 2 C6.02 2 4.04 2 2 2 C2 2.66 2 3.32 2 4 C-0.64 4 -3.28 4 -6 4 C-6 4.66 -6 5.32 -6 6 C-6.66 6 -7.32 6 -8 6 C-8 5.34 -8 4.68 -8 4 C-8.66 4 -9.32 4 -10 4 C-10 3.34 -10 2.68 -10 2 C-6.7 2 -3.4 2 0 2 C0 1.34 0 0.68 0 0 Z " fill="#841EC1" transform="translate(120,12)"/>
<path d="M0 0 C3.3 0 6.6 0 10 0 C10 0.66 10 1.32 10 2 C8.02 2 6.04 2 4 2 C4 4.64 4 7.28 4 10 C3.34 10 2.68 10 2 10 C2 8.02 2 6.04 2 4 C1.34 4 0.68 4 0 4 C0 2.68 0 1.36 0 0 Z " fill="#B6B6B5" transform="translate(166,196)"/>
<path d="M0 0 C0.66 0 1.32 0 2 0 C2 1.32 2 2.64 2 4 C6.62 4 11.24 4 16 4 C16 4.66 16 5.32 16 6 C10.72 6 5.44 6 0 6 C0 4.02 0 2.04 0 0 Z " fill="#8B8980" transform="translate(36,72)"/>
<path d="M0 0 C0.66 0 1.32 0 2 0 C2 3.96 2 7.92 2 12 C1.34 12 0.68 12 0 12 C0 12.66 0 13.32 0 14 C-1.32 14 -2.64 14 -4 14 C-4 13.34 -4 12.68 -4 12 C-3.34 12 -2.68 12 -2 12 C-2 11.34 -2 10.68 -2 10 C-1.34 10 -0.68 10 0 10 C0 6.7 0 3.4 0 0 Z " fill="#DEB3B4" transform="translate(220,240)"/>
<path d="M0 0 C0.66 0 1.32 0 2 0 C2 1.32 2 2.64 2 4 C4.64 4 7.28 4 10 4 C10 4.66 10 5.32 10 6 C5.38 6 0.76 6 -4 6 C-4 5.34 -4 4.68 -4 4 C-2.68 4 -1.36 4 0 4 C0 2.68 0 1.36 0 0 Z " fill="#BFBCB0" transform="translate(42,66)"/>
<path d="M0 0 C3.96 0 7.92 0 12 0 C12 0.66 12 1.32 12 2 C9.36 2 6.72 2 4 2 C4 2.66 4 3.32 4 4 C2.02 4 0.04 4 -2 4 C-2 3.34 -2 2.68 -2 2 C-1.34 2 -0.68 2 0 2 C0 1.34 0 0.68 0 0 Z " fill="#B4B2A8" transform="translate(34,56)"/>
<path d="M0 0 C4.62 0 9.24 0 14 0 C14 0.66 14 1.32 14 2 C14.66 2 15.32 2 16 2 C16 2.66 16 3.32 16 4 C14.68 4 13.36 4 12 4 C12 3.34 12 2.68 12 2 C8.04 2 4.08 2 0 2 C0 1.34 0 0.68 0 0 Z " fill="#ECE9DC" transform="translate(190,40)"/>
<path d="M0 0 C0.66 0 1.32 0 2 0 C2 1.32 2 2.64 2 4 C2.66 4 3.32 4 4 4 C4 5.32 4 6.64 4 8 C5.98 8 7.96 8 10 8 C10 8.66 10 9.32 10 10 C7.36 10 4.72 10 2 10 C2 8.68 2 7.36 2 6 C1.34 6 0.68 6 0 6 C0 4.02 0 2.04 0 0 Z " fill="#CEA5C4" transform="translate(202,22)"/>
<path d="M0 0 C0.66 0 1.32 0 2 0 C2 0.66 2 1.32 2 2 C2.66 2 3.32 2 4 2 C4 2.66 4 3.32 4 4 C4.66 4 5.32 4 6 4 C6 4.66 6 5.32 6 6 C6.66 6 7.32 6 8 6 C8 6.66 8 7.32 8 8 C6.02 8 4.04 8 2 8 C2 7.34 2 6.68 2 6 C1.34 6 0.68 6 0 6 C0 4.02 0 2.04 0 0 Z " fill="#F3ECDA" transform="translate(150,14)"/>
<path d="M0 0 C0.66 0 1.32 0 2 0 C2 1.32 2 2.64 2 4 C2.66 4 3.32 4 4 4 C4 5.98 4 7.96 4 10 C4.66 10 5.32 10 6 10 C6 10.66 6 11.32 6 12 C4.68 12 3.36 12 2 12 C2 10.02 2 8.04 2 6 C1.34 6 0.68 6 0 6 C0 4.02 0 2.04 0 0 Z " fill="#C884AE" transform="translate(56,238)"/>
<path d="M0 0 C1.98 0 3.96 0 6 0 C6 1.32 6 2.64 6 4 C5.34 4 4.68 4 4 4 C4 4.66 4 5.32 4 6 C2.68 6 1.36 6 0 6 C0 4.02 0 2.04 0 0 Z " fill="#E1D5D5" transform="translate(240,208)"/>
<path d="M0 0 C1.32 0 2.64 0 4 0 C4 2.64 4 5.28 4 8 C2.68 8 1.36 8 0 8 C0 5.36 0 2.72 0 0 Z " fill="#93928F" transform="translate(184,198)"/>
<path d="M0 0 C1.32 0 2.64 0 4 0 C4 4.62 4 9.24 4 14 C3.34 14 2.68 14 2 14 C2 10.04 2 6.08 2 2 C1.34 2 0.68 2 0 2 C0 1.34 0 0.68 0 0 Z " fill="#FAF8ED" transform="translate(162,144)"/>
<path d="M0 0 C0.66 0 1.32 0 2 0 C2 0.66 2 1.32 2 2 C2.66 2 3.32 2 4 2 C4 2.66 4 3.32 4 4 C1.36 4 -1.28 4 -4 4 C-4 4.66 -4 5.32 -4 6 C-5.32 6 -6.64 6 -8 6 C-8 5.34 -8 4.68 -8 4 C-7.34 4 -6.68 4 -6 4 C-6 3.34 -6 2.68 -6 2 C-4.02 2 -2.04 2 0 2 C0 1.34 0 0.68 0 0 Z " fill="#F5EFD4" transform="translate(242,92)"/>
<path d="M0 0 C0.66 0 1.32 0 2 0 C2 1.32 2 2.64 2 4 C2.66 4 3.32 4 4 4 C4 4.66 4 5.32 4 6 C2.68 6 1.36 6 0 6 C0 7.98 0 9.96 0 12 C-0.66 12 -1.32 12 -2 12 C-2 9.36 -2 6.72 -2 4 C-1.34 4 -0.68 4 0 4 C0 2.68 0 1.36 0 0 Z " fill="#CDBCBE" transform="translate(74,86)"/>
<path d="M0 0 C1.32 0 2.64 0 4 0 C4 0.66 4 1.32 4 2 C3.34 2 2.68 2 2 2 C2 2.66 2 3.32 2 4 C1.34 4 0.68 4 0 4 C0 4.66 0 5.32 0 6 C-0.66 6 -1.32 6 -2 6 C-2 6.66 -2 7.32 -2 8 C-3.32 8 -4.64 8 -6 8 C-6 7.34 -6 6.68 -6 6 C-5.34 6 -4.68 6 -4 6 C-4 5.34 -4 4.68 -4 4 C-3.34 4 -2.68 4 -2 4 C-2 3.34 -2 2.68 -2 2 C-1.34 2 -0.68 2 0 2 C0 1.34 0 0.68 0 0 Z " fill="#B87BC7" transform="translate(104,52)"/>
<path d="M0 0 C0.66 0 1.32 0 2 0 C2 3.3 2 6.6 2 10 C0.68 10 -0.64 10 -2 10 C-2 10.66 -2 11.32 -2 12 C-2.66 12 -3.32 12 -4 12 C-4 10.68 -4 9.36 -4 8 C-2.68 8 -1.36 8 0 8 C0 5.36 0 2.72 0 0 Z " fill="#C18AC6" transform="translate(112,40)"/>
<path d="M0 0 C0.66 0 1.32 0 2 0 C2 3.3 2 6.6 2 10 C3.32 10 4.64 10 6 10 C6 10.66 6 11.32 6 12 C4.02 12 2.04 12 0 12 C0 8.04 0 4.08 0 0 Z " fill="#AEACA2" transform="translate(42,40)"/>
<path d="M0 0 C3.96 0 7.92 0 12 0 C12 1.98 12 3.96 12 6 C11.34 6 10.68 6 10 6 C10 4.68 10 3.36 10 2 C6.7 2 3.4 2 0 2 C0 1.34 0 0.68 0 0 Z " fill="#D3B6CD" transform="translate(216,34)"/>
<path d="M0 0 C0.66 0 1.32 0 2 0 C2 3.3 2 6.6 2 10 C1.34 10 0.68 10 0 10 C0 9.34 0 8.68 0 8 C-0.66 8 -1.32 8 -2 8 C-2 6.02 -2 4.04 -2 2 C-1.34 2 -0.68 2 0 2 C0 1.34 0 0.68 0 0 Z " fill="#AB2274" transform="translate(252,14)"/>
<path d="M0 0 C1.32 0 2.64 0 4 0 C4 1.32 4 2.64 4 4 C3.34 4 2.68 4 2 4 C2 4.66 2 5.32 2 6 C0.68 6 -0.64 6 -2 6 C-2 4.68 -2 3.36 -2 2 C-1.34 2 -0.68 2 0 2 C0 1.34 0 0.68 0 0 Z " fill="#E7E5E3" transform="translate(214,248)"/>
<path d="M0 0 C0.66 0 1.32 0 2 0 C2 1.32 2 2.64 2 4 C4.64 4 7.28 4 10 4 C10 4.66 10 5.32 10 6 C6.7 6 3.4 6 0 6 C0 4.02 0 2.04 0 0 Z " fill="#504F4C" transform="translate(140,78)"/>
<path d="M0 0 C1.32 0 2.64 0 4 0 C4 0.66 4 1.32 4 2 C3.34 2 2.68 2 2 2 C2 3.98 2 5.96 2 8 C1.34 8 0.68 8 0 8 C0 8.66 0 9.32 0 10 C-0.66 10 -1.32 10 -2 10 C-2 8.68 -2 7.36 -2 6 C-1.34 6 -0.68 6 0 6 C0 4.02 0 2.04 0 0 Z " fill="#B06BC6" transform="translate(76,76)"/>
<path d="M0 0 C1.32 0 2.64 0 4 0 C4 3.96 4 7.92 4 12 C3.34 12 2.68 12 2 12 C2 8.7 2 5.4 2 2 C1.34 2 0.68 2 0 2 C0 1.34 0 0.68 0 0 Z " fill="#D6C3D1" transform="translate(230,44)"/>
<path d="M0 0 C1.32 0 2.64 0 4 0 C4 0.66 4 1.32 4 2 C4.66 2 5.32 2 6 2 C6 2.66 6 3.32 6 4 C6.66 4 7.32 4 8 4 C8 4.66 8 5.32 8 6 C6.02 6 4.04 6 2 6 C2 4.68 2 3.36 2 2 C1.34 2 0.68 2 0 2 C0 1.34 0 0.68 0 0 Z " fill="#7214DA" transform="translate(44,28)"/>
<path d="M0 0 C3.63 0 7.26 0 11 0 C11 0.66 11 1.32 11 2 C7.7 2 4.4 2 1 2 C1 2.66 1 3.32 1 4 C0.34 4 -0.32 4 -1 4 C-0.67 2.68 -0.34 1.36 0 0 Z " fill="#7E1D91" transform="translate(29,162)"/>
<path d="M0 0 C0.66 0 1.32 0 2 0 C1.6875 2.375 1.6875 2.375 1 5 C0.01 5.66 -0.98 6.32 -2 7 C-2 6.01 -2 5.02 -2 4 C-3.32 4 -4.64 4 -6 4 C-6 3.34 -6 2.68 -6 2 C-4.02 2 -2.04 2 0 2 C0 1.34 0 0.68 0 0 Z " fill="#9A1E92" transform="translate(22,194)"/>
<path d="M0 0 C0.66 0 1.32 0 2 0 C2 1.32 2 2.64 2 4 C1.34 4 0.68 4 0 4 C0 4.66 0 5.32 0 6 C-1.98 6 -3.96 6 -6 6 C-6 5.34 -6 4.68 -6 4 C-4.68 4 -3.36 4 -2 4 C-2 3.34 -2 2.68 -2 2 C-1.34 2 -0.68 2 0 2 C0 1.34 0 0.68 0 0 Z " fill="#F5EFD4" transform="translate(184,238)"/>
<path d="M0 0 C0.66 0 1.32 0 2 0 C2 2.64 2 5.28 2 8 C1.34 8 0.68 8 0 8 C0 8.66 0 9.32 0 10 C-0.66 10 -1.32 10 -2 10 C-2 8.68 -2 7.36 -2 6 C-1.34 6 -0.68 6 0 6 C0 4.02 0 2.04 0 0 Z " fill="#DD9E9C" transform="translate(226,224)"/>
<path d="M0 0 C0.66 0 1.32 0 2 0 C2 1.98 2 3.96 2 6 C0.68 6 -0.64 6 -2 6 C-2 6.66 -2 7.32 -2 8 C-2.66 8 -3.32 8 -4 8 C-4 6.68 -4 5.36 -4 4 C-2.68 4 -1.36 4 0 4 C0 2.68 0 1.36 0 0 Z " fill="#DB9797" transform="translate(240,214)"/>
<path d="M0 0 C1.32 0 2.64 0 4 0 C4 3.3 4 6.6 4 10 C3.34 10 2.68 10 2 10 C2 7.36 2 4.72 2 2 C1.34 2 0.68 2 0 2 C0 1.34 0 0.68 0 0 Z " fill="#4C4550" transform="translate(22,166)"/>
<path d="M0 0 C0.66 0 1.32 0 2 0 C2 1.32 2 2.64 2 4 C-1.3 4 -4.6 4 -8 4 C-8 3.34 -8 2.68 -8 2 C-5.36 2 -2.72 2 0 2 C0 1.34 0 0.68 0 0 Z " fill="#53524E" transform="translate(210,162)"/>
<path d="M0 0 C3.3 0 6.6 0 10 0 C10 1.32 10 2.64 10 4 C9.34 4 8.68 4 8 4 C8 3.34 8 2.68 8 2 C5.36 2 2.72 2 0 2 C0 1.34 0 0.68 0 0 Z " fill="#181818" transform="translate(178,162)"/>
<path d="M0 0 C0.66 0 1.32 0 2 0 C2 1.98 2 3.96 2 6 C1.34 6 0.68 6 0 6 C0 7.32 0 8.64 0 10 C-0.66 10 -1.32 10 -2 10 C-2 8.02 -2 6.04 -2 4 C-1.34 4 -0.68 4 0 4 C0 2.68 0 1.36 0 0 Z " fill="#D1A6C3" transform="translate(46,146)"/>
<path d="M0 0 C1.32 0 2.64 0 4 0 C4 0.66 4 1.32 4 2 C3.34 2 2.68 2 2 2 C2 3.32 2 4.64 2 6 C1.34 6 0.68 6 0 6 C0 6.66 0 7.32 0 8 C-0.66 8 -1.32 8 -2 8 C-2 6.68 -2 5.36 -2 4 C-1.34 4 -0.68 4 0 4 C0 2.68 0 1.36 0 0 Z " fill="#DABECE" transform="translate(52,132)"/>
<path d="M0 0 C2.64 0 5.28 0 8 0 C8 0.66 8 1.32 8 2 C7.34 2 6.68 2 6 2 C6 3.32 6 4.64 6 6 C5.34 6 4.68 6 4 6 C4 4.68 4 3.36 4 2 C2.68 2 1.36 2 0 2 C0 1.34 0 0.68 0 0 Z " fill="#9835B2" transform="translate(46,130)"/>
<path d="M0 0 C0.66 0 1.32 0 2 0 C2 1.98 2 3.96 2 6 C1.34 6 0.68 6 0 6 C0 6.66 0 7.32 0 8 C-1.32 8 -2.64 8 -4 8 C-4 7.34 -4 6.68 -4 6 C-3.34 6 -2.68 6 -2 6 C-2 5.34 -2 4.68 -2 4 C-1.34 4 -0.68 4 0 4 C0 2.68 0 1.36 0 0 Z " fill="#B6B7B5" transform="translate(170,96)"/>
<path d="M0 0 C0.66 0 1.32 0 2 0 C2 1.98 2 3.96 2 6 C0.02 6 -1.96 6 -4 6 C-4 5.34 -4 4.68 -4 4 C-3.34 4 -2.68 4 -2 4 C-2 3.34 -2 2.68 -2 2 C-1.34 2 -0.68 2 0 2 C0 1.34 0 0.68 0 0 Z " fill="#7314D8" transform="translate(34,44)"/>
<path d="M0 0 C2.64 0 5.28 0 8 0 C8 0.66 8 1.32 8 2 C8.66 2 9.32 2 10 2 C10 2.66 10 3.32 10 4 C8.68 4 7.36 4 6 4 C6 3.34 6 2.68 6 2 C4.02 2 2.04 2 0 2 C0 1.34 0 0.68 0 0 Z " fill="#AE449D" transform="translate(206,28)"/>
<path d="M0 0 C1.32 0 2.64 0 4 0 C4 0.66 4 1.32 4 2 C3.34 2 2.68 2 2 2 C2 2.66 2 3.32 2 4 C1.34 4 0.68 4 0 4 C0 5.32 0 6.64 0 8 C-0.66 8 -1.32 8 -2 8 C-2 6.02 -2 4.04 -2 2 C-1.34 2 -0.68 2 0 2 C0 1.34 0 0.68 0 0 Z " fill="#B370C6" transform="translate(114,16)"/>
<path d="M0 0 C1.32 0 2.64 0 4 0 C4 0.66 4 1.32 4 2 C3.34 2 2.68 2 2 2 C2 2.66 2 3.32 2 4 C-0.64 4 -3.28 4 -6 4 C-6 3.34 -6 2.68 -6 2 C-4.02 2 -2.04 2 0 2 C0 1.34 0 0.68 0 0 Z " fill="#D2B0D0" transform="translate(128,12)"/>
<path d="M0 0 C1.98 0 3.96 0 6 0 C6 0.66 6 1.32 6 2 C6.66 2 7.32 2 8 2 C8 2.66 8 3.32 8 4 C6.68 4 5.36 4 4 4 C4 3.34 4 2.68 4 2 C2.68 2 1.36 2 0 2 C0 1.34 0 0.68 0 0 Z " fill="#D3A0B4" transform="translate(64,250)"/>
<path d="M0 0 C0.66 0 1.32 0 2 0 C2 1.32 2 2.64 2 4 C1.34 4 0.68 4 0 4 C0 4.66 0 5.32 0 6 C-1.32 6 -2.64 6 -4 6 C-4 5.34 -4 4.68 -4 4 C-3.34 4 -2.68 4 -2 4 C-2 3.34 -2 2.68 -2 2 C-1.34 2 -0.68 2 0 2 C0 1.34 0 0.68 0 0 Z " fill="#F4EED2" transform="translate(194,230)"/>
<path d="M0 0 C0.66 0 1.32 0 2 0 C2 1.32 2 2.64 2 4 C1.34 4 0.68 4 0 4 C0 4.66 0 5.32 0 6 C-1.32 6 -2.64 6 -4 6 C-4 5.34 -4 4.68 -4 4 C-3.34 4 -2.68 4 -2 4 C-2 3.34 -2 2.68 -2 2 C-1.34 2 -0.68 2 0 2 C0 1.34 0 0.68 0 0 Z " fill="#E05C55" transform="translate(246,210)"/>
<path d="M0 0 C1.32 0 2.64 0 4 0 C4 0.66 4 1.32 4 2 C3.34 2 2.68 2 2 2 C2 3.98 2 5.96 2 8 C1.34 8 0.68 8 0 8 C0 5.36 0 2.72 0 0 Z " fill="#E34B41" transform="translate(250,202)"/>
<path d="M0 0 C1.32 0 2.64 0 4 0 C4 1.98 4 3.96 4 6 C2.68 6 1.36 6 0 6 C0 5.34 0 4.68 0 4 C0.66 4 1.32 4 2 4 C2 3.34 2 2.68 2 2 C1.34 2 0.68 2 0 2 C0 1.34 0 0.68 0 0 Z " fill="#ADADA9" transform="translate(180,192)"/>
<path d="M0 0 C2.64 0 5.28 0 8 0 C8 0.66 8 1.32 8 2 C6.02 2 4.04 2 2 2 C2 2.66 2 3.32 2 4 C1.34 4 0.68 4 0 4 C0 2.68 0 1.36 0 0 Z " fill="#1E1E1D" transform="translate(192,162)"/>
<path d="M0 0 C2.64 0 5.28 0 8 0 C8 1.32 8 2.64 8 4 C7.34 4 6.68 4 6 4 C6 3.34 6 2.68 6 2 C4.02 2 2.04 2 0 2 C0 1.34 0 0.68 0 0 Z " fill="#EBE8E1" transform="translate(246,98)"/>
<path d="M0 0 C0.66 0 1.32 0 2 0 C2 1.32 2 2.64 2 4 C1.34 4 0.68 4 0 4 C0 4.66 0 5.32 0 6 C-1.32 6 -2.64 6 -4 6 C-4 5.34 -4 4.68 -4 4 C-3.34 4 -2.68 4 -2 4 C-2 3.34 -2 2.68 -2 2 C-1.34 2 -0.68 2 0 2 C0 1.34 0 0.68 0 0 Z " fill="#E5D6D6" transform="translate(110,50)"/>
<path d="M0 0 C1.32 0 2.64 0 4 0 C4 1.32 4 2.64 4 4 C3.34 4 2.68 4 2 4 C2 4.66 2 5.32 2 6 C1.34 6 0.68 6 0 6 C0 4.02 0 2.04 0 0 Z " fill="#7222C1" transform="translate(22,52)"/>
<path d="M0 0 C0.66 0 1.32 0 2 0 C2 1.32 2 2.64 2 4 C3.32 4 4.64 4 6 4 C6 4.66 6 5.32 6 6 C4.02 6 2.04 6 0 6 C0 4.02 0 2.04 0 0 Z " fill="#C794C4" transform="translate(158,18)"/>
<path d="M0 0 C2.64 0 5.28 0 8 0 C8 0.66 8 1.32 8 2 C6.02 2 4.04 2 2 2 C2 2.66 2 3.32 2 4 C1.34 4 0.68 4 0 4 C0 2.68 0 1.36 0 0 Z " fill="#9134C3" transform="translate(120,12)"/>
</svg>
